M48
;DRILL file {KiCad (5.0.0-rc2-dev-444-g2974a2c10)} date 08/08/18 23:01:00
;FORMAT={2:4/ absolute / inch / suppress leading zeros}
FMAT,2
INCH,TZ
T1C0.0118
T2C0.0157
T3C0.0354
T4C0.0374
T5C0.0394
T6C0.0433
T7C0.0630
T8C0.0701
T9C0.1150
T10C0.1260
T11C0.1693
%
G90
G05
M72
T1
X27283Y-22736
X27283Y-23327
X27283Y-23917
X27283Y-24508
X27795Y-22736
X27795Y-23327
X27795Y-23917
X27795Y-24508
X28307Y-22736
X28307Y-23327
X28307Y-23917
X28307Y-24508
X28819Y-22736
X28819Y-23327
X28819Y-23917
X28819Y-24508
X29331Y-22736
X29331Y-23327
X29331Y-23917
X29331Y-24508
X29843Y-22736
X29843Y-23327
X29843Y-23917
X29843Y-24508
X30354Y-22736
X30354Y-23327
X30354Y-23917
X30354Y-24508
X30866Y-22736
X30866Y-23327
X30866Y-23917
X30866Y-24508
X31378Y-22736
X31378Y-23327
X31378Y-23917
X31378Y-24508
T2
X1575Y-30709
X2000Y-10500
X2087Y-18256
X3740Y-23228
X3740Y-23228
X4331Y-46457
X4528Y-16732
X5315Y-42717
X6102Y-36024
X6299Y-16142
X6496Y-40551
X7087Y-34449
X7087Y-35433
X7283Y-39370
X7283Y-39961
X7874Y-33858
X7874Y-35236
X7874Y-38583
X8661Y-15157
X11220Y-32087
X11417Y-10433
X11500Y-24000
X11500Y-25500
X11614Y-23228
X12000Y-24000
X12000Y-25500
X12598Y-37008
X13189Y-44291
X13583Y-33858
X13976Y-43701
X14370Y-23819
X14764Y-44488
X14961Y-32677
X15945Y-31890
X16535Y-12008
X17717Y-12008
X17913Y-31693
X20079Y-15157
X20472Y-35630
X21063Y-30906
X21457Y-35630
X21654Y-21457
X21850Y-25591
X22047Y-12008
X23031Y-12008
X24382Y-27011
X24500Y-25500
X24774Y-26975
X24803Y-17717
X25000Y-20000
X25591Y-31890
X26378Y-35630
X27165Y-15354
X27559Y-35630
X27953Y-12008
X28150Y-984
X28740Y-46260
X28937Y-11811
X30906Y-35630
X31496Y-14567
X31496Y-18110
X31496Y-19094
X31496Y-30118
X31693Y-28937
X31823Y-13910
X31890Y-12008
X31890Y-35630
X32087Y-23031
X32087Y-25197
X32480Y-21457
X33071Y-12008
X36417Y-36024
X38583Y-36024
X42323Y-23819
X42323Y-38386
T3
X34453Y-13622
X34453Y-14622
X34453Y-15622
X34453Y-16622
X34453Y-19122
X34453Y-20122
X34453Y-21122
X34453Y-22122
X34453Y-24622
X34453Y-25622
X34453Y-26622
X34453Y-27622
X34453Y-30122
X34453Y-31122
X34453Y-32122
X34453Y-33122
X35453Y-14122
X35453Y-15122
X35453Y-16122
X35453Y-17122
X35453Y-19622
X35453Y-20622
X35453Y-21622
X35453Y-22622
X35453Y-25122
X35453Y-26122
X35453Y-27122
X35453Y-28122
X35453Y-30622
X35453Y-31622
X35453Y-32622
X35453Y-33622
X37051Y-13622
X37051Y-14622
X37051Y-15622
X37051Y-16622
X37051Y-19122
X37051Y-20122
X37051Y-21122
X37051Y-22122
X37051Y-24622
X37051Y-25622
X37051Y-26622
X37051Y-27622
X37051Y-30122
X37051Y-31122
X37051Y-32122
X37051Y-33122
X38051Y-14122
X38051Y-15122
X38051Y-16122
X38051Y-17122
X38051Y-19622
X38051Y-20622
X38051Y-21622
X38051Y-22622
X38051Y-25122
X38051Y-26122
X38051Y-27122
X38051Y-28122
X38051Y-30622
X38051Y-31622
X38051Y-32622
X38051Y-33622
X17165Y-39390
X17165Y-41988
X17665Y-38390
X17665Y-40988
X18165Y-39390
X18165Y-41988
X18665Y-38390
X18665Y-40988
X19165Y-39390
X19165Y-41988
X19665Y-38390
X19665Y-40988
X20165Y-39390
X20165Y-41988
X20665Y-38390
X20665Y-40988
X22665Y-39390
X22665Y-41988
X23165Y-38390
X23165Y-40988
X23665Y-39390
X23665Y-41988
X24165Y-38390
X24165Y-40988
X24665Y-39390
X24665Y-41988
X25165Y-38390
X25165Y-40988
X25665Y-39390
X25665Y-41988
X26165Y-38390
X26165Y-40988
X28165Y-39390
X28165Y-41988
X28665Y-38390
X28665Y-40988
X29165Y-39390
X29165Y-41988
X29665Y-38390
X29665Y-40988
X30165Y-39390
X30165Y-41988
X30665Y-38390
X30665Y-40988
X31165Y-39390
X31165Y-41988
X31665Y-38390
X31665Y-40988
X33665Y-39390
X33665Y-41988
X34165Y-38390
X34165Y-40988
X34665Y-39390
X34665Y-41988
X35165Y-38390
X35165Y-40988
X35665Y-39390
X35665Y-41988
X36165Y-38390
X36165Y-40988
X36665Y-39390
X36665Y-41988
X37165Y-38390
X37165Y-40988
X17165Y-6256
X17165Y-8854
X17665Y-5256
X17665Y-7854
X18165Y-6256
X18165Y-8854
X18665Y-5256
X18665Y-7854
X19165Y-6256
X19165Y-8854
X19665Y-5256
X19665Y-7854
X20165Y-6256
X20165Y-8854
X20665Y-5256
X20665Y-7854
X22665Y-6256
X22665Y-8854
X23165Y-5256
X23165Y-7854
X23665Y-6256
X23665Y-8854
X24165Y-5256
X24165Y-7854
X24665Y-6256
X24665Y-8854
X25165Y-5256
X25165Y-7854
X25665Y-6256
X25665Y-8854
X26165Y-5256
X26165Y-7854
X28165Y-6256
X28165Y-8854
X28665Y-5256
X28665Y-7854
X29165Y-6256
X29165Y-8854
X29665Y-5256
X29665Y-7854
X30165Y-6256
X30165Y-8854
X30665Y-5256
X30665Y-7854
X31165Y-6256
X31165Y-8854
X31665Y-5256
X31665Y-7854
X33665Y-6256
X33665Y-8854
X34165Y-5256
X34165Y-7854
X34665Y-6256
X34665Y-8854
X35165Y-5256
X35165Y-7854
X35665Y-6256
X35665Y-8854
X36165Y-5256
X36165Y-7854
X36665Y-6256
X36665Y-8854
X37165Y-5256
X37165Y-7854
T4
X2000Y-38756
X2000Y-39740
X2000Y-40724
X2000Y-41709
T5
X980Y-7417
X980Y-9417
X980Y-10417
X980Y-13417
X1980Y-7417
X1980Y-13417
X2980Y-7417
X2980Y-13417
X3980Y-7417
X3980Y-13417
X4980Y-7417
X4980Y-13417
X5480Y-4917
X5480Y-5917
X5980Y-7417
X5980Y-13417
X6480Y-4917
X6480Y-5917
X6980Y-7417
X6980Y-13417
X7480Y-4917
X7480Y-5917
X7980Y-7417
X7980Y-13417
X8480Y-5917
X8980Y-7417
X8980Y-13417
X9480Y-4917
X9480Y-5917
X9980Y-7417
X9980Y-13417
X10730Y-15667
X10730Y-16667
X10730Y-17667
X10980Y-7417
X10980Y-13417
X11980Y-7417
X11980Y-13417
X12980Y-7417
X12980Y-13417
X13980Y-7417
X13980Y-13417
T6
X595Y-20622
X595Y-26622
X1595Y-20622
X1595Y-21622
X1595Y-26622
X2595Y-20622
X2595Y-26622
X3095Y-25441
X3595Y-20622
X3595Y-21622
X3595Y-26622
X4095Y-25441
X4595Y-20622
X4595Y-21622
X4595Y-26622
X5095Y-25441
X5595Y-20622
X5595Y-21622
X5595Y-26622
X6095Y-25441
X6595Y-20622
X6595Y-22622
X6595Y-23622
X6595Y-26622
X7095Y-25441
X7595Y-20622
X7595Y-22622
X7595Y-23622
X7595Y-26622
X8595Y-20622
X8595Y-22622
X8595Y-23622
X8595Y-26622
X9595Y-20622
X9595Y-22622
X9595Y-23622
X9595Y-26622
X10595Y-20622
X10595Y-26622
X11595Y-20622
X11595Y-26622
X12595Y-20622
X12595Y-26622
X13595Y-20622
X13595Y-26622
X14595Y-20622
X14595Y-26622
X15595Y-20622
X15595Y-22622
X15595Y-23622
X15595Y-26622
X16595Y-20622
X16595Y-22622
X16595Y-23622
X16595Y-26622
X17595Y-20622
X17595Y-22622
X17595Y-23622
X17595Y-26622
X18595Y-20622
X18595Y-21622
X18595Y-22622
X18595Y-23622
X18595Y-24622
X18595Y-25622
X18595Y-26622
X19595Y-20622
X19595Y-22622
X19595Y-23622
X19595Y-26622
X20595Y-20622
X20595Y-22622
X20595Y-23622
X20595Y-26622
X21595Y-20622
X21595Y-22622
X21595Y-23622
X21595Y-26622
X22595Y-20622
X22595Y-22622
X22595Y-23622
X22595Y-26622
X23595Y-20622
X23595Y-22622
X23595Y-23622
X23595Y-26622
T7
X34449Y-35224
X36051Y-12020
X36949Y-34925
X38248Y-12319
X42350Y-12020
X42350Y-35224
X15563Y-38386
X15563Y-46287
X15862Y-40886
X38469Y-42185
X38768Y-39988
X38768Y-46287
X15563Y-957
X15563Y-7256
X15862Y-5059
X38469Y-6358
X38768Y-957
X38768Y-8858
T8
X8094Y-43661
X8094Y-45000
X12000Y-43661
X12000Y-45000
T9
X1730Y-5167
X8230Y-17167
X13230Y-5167
T10
X40551Y-13122
X40551Y-34122
X16665Y-44488
X37665Y-44488
X16665Y-2756
X37665Y-2756
T11
X41339Y-1969
X1969Y-45276
X1969Y-1969
X41339Y-45276
T5
X1638Y-33862G85X1638Y-34650
G05
X2425Y-36106G85X3213Y-36106
G05
X4000Y-33862G85X4000Y-34650
G05
T0
M30
