G04 #@! TF.GenerationSoftware,KiCad,Pcbnew,(5.0.0-rc2-dev-444-g2974a2c10)*
G04 #@! TF.CreationDate,2018-08-08T23:01:06-07:00*
G04 #@! TF.ProjectId,mcu_board,6D63755F626F6172642E6B696361645F,rev?*
G04 #@! TF.SameCoordinates,Original*
G04 #@! TF.FileFunction,Soldermask,Top*
G04 #@! TF.FilePolarity,Negative*
%FSLAX46Y46*%
G04 Gerber Fmt 4.6, Leading zero omitted, Abs format (unit mm)*
G04 Created by KiCad (PCBNEW (5.0.0-rc2-dev-444-g2974a2c10)) date 08/08/18 23:01:06*
%MOMM*%
%LPD*%
G01*
G04 APERTURE LIST*
%ADD10R,2.350000X2.100000*%
%ADD11O,2.350000X2.100000*%
%ADD12C,0.100000*%
%ADD13C,1.350000*%
%ADD14C,4.700000*%
%ADD15C,0.900000*%
%ADD16C,1.825000*%
%ADD17R,3.900000X3.900000*%
%ADD18C,3.400000*%
%ADD19C,3.900000*%
%ADD20C,3.180000*%
%ADD21R,0.800000X1.600000*%
%ADD22R,4.760000X4.510000*%
%ADD23R,2.400000X4.200000*%
%ADD24R,2.400000X1.900000*%
%ADD25C,3.321000*%
%ADD26C,2.178000*%
%ADD27C,1.808000*%
%ADD28C,2.800000*%
%ADD29C,3.600000*%
%ADD30C,2.000000*%
%ADD31R,2.000000X2.000000*%
G04 APERTURE END LIST*
D10*
X5080000Y-98440000D03*
D11*
X5080000Y-100940000D03*
X5080000Y-103440000D03*
X5080000Y-105940000D03*
D12*
G36*
X11455581Y-102846625D02*
X11488343Y-102851485D01*
X11520471Y-102859533D01*
X11551656Y-102870691D01*
X11581596Y-102884852D01*
X11610005Y-102901879D01*
X11636608Y-102921609D01*
X11661149Y-102943851D01*
X11683391Y-102968392D01*
X11703121Y-102994995D01*
X11720148Y-103023404D01*
X11734309Y-103053344D01*
X11745467Y-103084529D01*
X11753515Y-103116657D01*
X11758375Y-103149419D01*
X11760000Y-103182500D01*
X11760000Y-103857500D01*
X11758375Y-103890581D01*
X11753515Y-103923343D01*
X11745467Y-103955471D01*
X11734309Y-103986656D01*
X11720148Y-104016596D01*
X11703121Y-104045005D01*
X11683391Y-104071608D01*
X11661149Y-104096149D01*
X11636608Y-104118391D01*
X11610005Y-104138121D01*
X11581596Y-104155148D01*
X11551656Y-104169309D01*
X11520471Y-104180467D01*
X11488343Y-104188515D01*
X11455581Y-104193375D01*
X11422500Y-104195000D01*
X10647500Y-104195000D01*
X10614419Y-104193375D01*
X10581657Y-104188515D01*
X10549529Y-104180467D01*
X10518344Y-104169309D01*
X10488404Y-104155148D01*
X10459995Y-104138121D01*
X10433392Y-104118391D01*
X10408851Y-104096149D01*
X10386609Y-104071608D01*
X10366879Y-104045005D01*
X10349852Y-104016596D01*
X10335691Y-103986656D01*
X10324533Y-103955471D01*
X10316485Y-103923343D01*
X10311625Y-103890581D01*
X10310000Y-103857500D01*
X10310000Y-103182500D01*
X10311625Y-103149419D01*
X10316485Y-103116657D01*
X10324533Y-103084529D01*
X10335691Y-103053344D01*
X10349852Y-103023404D01*
X10366879Y-102994995D01*
X10386609Y-102968392D01*
X10408851Y-102943851D01*
X10433392Y-102921609D01*
X10459995Y-102901879D01*
X10488404Y-102884852D01*
X10518344Y-102870691D01*
X10549529Y-102859533D01*
X10581657Y-102851485D01*
X10614419Y-102846625D01*
X10647500Y-102845000D01*
X11422500Y-102845000D01*
X11455581Y-102846625D01*
X11455581Y-102846625D01*
G37*
D13*
X11035000Y-103520000D03*
D12*
G36*
X9705581Y-102846625D02*
X9738343Y-102851485D01*
X9770471Y-102859533D01*
X9801656Y-102870691D01*
X9831596Y-102884852D01*
X9860005Y-102901879D01*
X9886608Y-102921609D01*
X9911149Y-102943851D01*
X9933391Y-102968392D01*
X9953121Y-102994995D01*
X9970148Y-103023404D01*
X9984309Y-103053344D01*
X9995467Y-103084529D01*
X10003515Y-103116657D01*
X10008375Y-103149419D01*
X10010000Y-103182500D01*
X10010000Y-103857500D01*
X10008375Y-103890581D01*
X10003515Y-103923343D01*
X9995467Y-103955471D01*
X9984309Y-103986656D01*
X9970148Y-104016596D01*
X9953121Y-104045005D01*
X9933391Y-104071608D01*
X9911149Y-104096149D01*
X9886608Y-104118391D01*
X9860005Y-104138121D01*
X9831596Y-104155148D01*
X9801656Y-104169309D01*
X9770471Y-104180467D01*
X9738343Y-104188515D01*
X9705581Y-104193375D01*
X9672500Y-104195000D01*
X8897500Y-104195000D01*
X8864419Y-104193375D01*
X8831657Y-104188515D01*
X8799529Y-104180467D01*
X8768344Y-104169309D01*
X8738404Y-104155148D01*
X8709995Y-104138121D01*
X8683392Y-104118391D01*
X8658851Y-104096149D01*
X8636609Y-104071608D01*
X8616879Y-104045005D01*
X8599852Y-104016596D01*
X8585691Y-103986656D01*
X8574533Y-103955471D01*
X8566485Y-103923343D01*
X8561625Y-103890581D01*
X8560000Y-103857500D01*
X8560000Y-103182500D01*
X8561625Y-103149419D01*
X8566485Y-103116657D01*
X8574533Y-103084529D01*
X8585691Y-103053344D01*
X8599852Y-103023404D01*
X8616879Y-102994995D01*
X8636609Y-102968392D01*
X8658851Y-102943851D01*
X8683392Y-102921609D01*
X8709995Y-102901879D01*
X8738404Y-102884852D01*
X8768344Y-102870691D01*
X8799529Y-102859533D01*
X8831657Y-102851485D01*
X8864419Y-102846625D01*
X8897500Y-102845000D01*
X9672500Y-102845000D01*
X9705581Y-102846625D01*
X9705581Y-102846625D01*
G37*
D13*
X9285000Y-103520000D03*
D14*
X105000000Y-115000000D03*
X5000000Y-5000000D03*
X5000000Y-115000000D03*
X105000000Y-5000000D03*
D15*
X49771097Y-63623964D03*
D12*
G36*
X50221097Y-64123964D02*
X50221097Y-64323964D01*
X50071097Y-64323964D01*
X50071097Y-64523964D01*
X49471097Y-64523964D01*
X49471097Y-64323964D01*
X49321097Y-64323964D01*
X49321097Y-64123964D01*
X49021097Y-64123964D01*
X49021097Y-63623964D01*
X49021699Y-63623964D01*
X49021699Y-63599430D01*
X49026509Y-63550599D01*
X49036081Y-63502474D01*
X49050325Y-63455519D01*
X49069102Y-63410186D01*
X49092233Y-63366913D01*
X49119493Y-63326114D01*
X49150621Y-63288185D01*
X49185318Y-63253488D01*
X49223247Y-63222360D01*
X49264046Y-63195100D01*
X49307319Y-63171969D01*
X49321097Y-63166262D01*
X49321097Y-62923964D01*
X50221097Y-62923964D01*
X50221097Y-63166262D01*
X50234875Y-63171969D01*
X50278148Y-63195100D01*
X50318947Y-63222360D01*
X50356876Y-63253488D01*
X50391573Y-63288185D01*
X50422701Y-63326114D01*
X50449961Y-63366913D01*
X50473092Y-63410186D01*
X50491869Y-63455519D01*
X50506113Y-63502474D01*
X50515685Y-63550599D01*
X50520495Y-63599430D01*
X50520495Y-63623964D01*
X50521097Y-63623964D01*
X50521097Y-64123964D01*
X50221097Y-64123964D01*
X50221097Y-64123964D01*
G37*
D15*
X49771097Y-64923964D03*
D12*
G36*
X50520495Y-64923964D02*
X50520495Y-64948498D01*
X50515685Y-64997329D01*
X50506113Y-65045454D01*
X50491869Y-65092409D01*
X50473092Y-65137742D01*
X50449961Y-65181015D01*
X50422701Y-65221814D01*
X50391573Y-65259743D01*
X50356876Y-65294440D01*
X50318947Y-65325568D01*
X50278148Y-65352828D01*
X50234875Y-65375959D01*
X50221097Y-65381666D01*
X50221097Y-65623964D01*
X49321097Y-65623964D01*
X49321097Y-65381666D01*
X49307319Y-65375959D01*
X49264046Y-65352828D01*
X49223247Y-65325568D01*
X49185318Y-65294440D01*
X49150621Y-65259743D01*
X49119493Y-65221814D01*
X49092233Y-65181015D01*
X49069102Y-65137742D01*
X49050325Y-65092409D01*
X49036081Y-65045454D01*
X49026509Y-64997329D01*
X49021699Y-64948498D01*
X49021699Y-64923964D01*
X49021097Y-64923964D01*
X49021097Y-64423964D01*
X49321097Y-64423964D01*
X49321097Y-64223964D01*
X50221097Y-64223964D01*
X50221097Y-64423964D01*
X50521097Y-64423964D01*
X50521097Y-64923964D01*
X50520495Y-64923964D01*
X50520495Y-64923964D01*
G37*
G36*
X67370581Y-55401625D02*
X67403343Y-55406485D01*
X67435471Y-55414533D01*
X67466656Y-55425691D01*
X67496596Y-55439852D01*
X67525005Y-55456879D01*
X67551608Y-55476609D01*
X67576149Y-55498851D01*
X67598391Y-55523392D01*
X67618121Y-55549995D01*
X67635148Y-55578404D01*
X67649309Y-55608344D01*
X67660467Y-55639529D01*
X67668515Y-55671657D01*
X67673375Y-55704419D01*
X67675000Y-55737500D01*
X67675000Y-56512500D01*
X67673375Y-56545581D01*
X67668515Y-56578343D01*
X67660467Y-56610471D01*
X67649309Y-56641656D01*
X67635148Y-56671596D01*
X67618121Y-56700005D01*
X67598391Y-56726608D01*
X67576149Y-56751149D01*
X67551608Y-56773391D01*
X67525005Y-56793121D01*
X67496596Y-56810148D01*
X67466656Y-56824309D01*
X67435471Y-56835467D01*
X67403343Y-56843515D01*
X67370581Y-56848375D01*
X67337500Y-56850000D01*
X66662500Y-56850000D01*
X66629419Y-56848375D01*
X66596657Y-56843515D01*
X66564529Y-56835467D01*
X66533344Y-56824309D01*
X66503404Y-56810148D01*
X66474995Y-56793121D01*
X66448392Y-56773391D01*
X66423851Y-56751149D01*
X66401609Y-56726608D01*
X66381879Y-56700005D01*
X66364852Y-56671596D01*
X66350691Y-56641656D01*
X66339533Y-56610471D01*
X66331485Y-56578343D01*
X66326625Y-56545581D01*
X66325000Y-56512500D01*
X66325000Y-55737500D01*
X66326625Y-55704419D01*
X66331485Y-55671657D01*
X66339533Y-55639529D01*
X66350691Y-55608344D01*
X66364852Y-55578404D01*
X66381879Y-55549995D01*
X66401609Y-55523392D01*
X66423851Y-55498851D01*
X66448392Y-55476609D01*
X66474995Y-55456879D01*
X66503404Y-55439852D01*
X66533344Y-55425691D01*
X66564529Y-55414533D01*
X66596657Y-55406485D01*
X66629419Y-55401625D01*
X66662500Y-55400000D01*
X67337500Y-55400000D01*
X67370581Y-55401625D01*
X67370581Y-55401625D01*
G37*
D13*
X67000000Y-56125000D03*
D12*
G36*
X67370581Y-57151625D02*
X67403343Y-57156485D01*
X67435471Y-57164533D01*
X67466656Y-57175691D01*
X67496596Y-57189852D01*
X67525005Y-57206879D01*
X67551608Y-57226609D01*
X67576149Y-57248851D01*
X67598391Y-57273392D01*
X67618121Y-57299995D01*
X67635148Y-57328404D01*
X67649309Y-57358344D01*
X67660467Y-57389529D01*
X67668515Y-57421657D01*
X67673375Y-57454419D01*
X67675000Y-57487500D01*
X67675000Y-58262500D01*
X67673375Y-58295581D01*
X67668515Y-58328343D01*
X67660467Y-58360471D01*
X67649309Y-58391656D01*
X67635148Y-58421596D01*
X67618121Y-58450005D01*
X67598391Y-58476608D01*
X67576149Y-58501149D01*
X67551608Y-58523391D01*
X67525005Y-58543121D01*
X67496596Y-58560148D01*
X67466656Y-58574309D01*
X67435471Y-58585467D01*
X67403343Y-58593515D01*
X67370581Y-58598375D01*
X67337500Y-58600000D01*
X66662500Y-58600000D01*
X66629419Y-58598375D01*
X66596657Y-58593515D01*
X66564529Y-58585467D01*
X66533344Y-58574309D01*
X66503404Y-58560148D01*
X66474995Y-58543121D01*
X66448392Y-58523391D01*
X66423851Y-58501149D01*
X66401609Y-58476608D01*
X66381879Y-58450005D01*
X66364852Y-58421596D01*
X66350691Y-58391656D01*
X66339533Y-58360471D01*
X66331485Y-58328343D01*
X66326625Y-58295581D01*
X66325000Y-58262500D01*
X66325000Y-57487500D01*
X66326625Y-57454419D01*
X66331485Y-57421657D01*
X66339533Y-57389529D01*
X66350691Y-57358344D01*
X66364852Y-57328404D01*
X66381879Y-57299995D01*
X66401609Y-57273392D01*
X66423851Y-57248851D01*
X66448392Y-57226609D01*
X66474995Y-57206879D01*
X66503404Y-57189852D01*
X66533344Y-57175691D01*
X66564529Y-57164533D01*
X66596657Y-57156485D01*
X66629419Y-57151625D01*
X66662500Y-57150000D01*
X67337500Y-57150000D01*
X67370581Y-57151625D01*
X67370581Y-57151625D01*
G37*
D13*
X67000000Y-57875000D03*
D12*
G36*
X23701207Y-98976542D02*
X23732287Y-98981152D01*
X23762766Y-98988787D01*
X23792350Y-98999372D01*
X23820754Y-99012806D01*
X23847704Y-99028959D01*
X23872942Y-99047677D01*
X23896223Y-99068777D01*
X23917323Y-99092058D01*
X23936041Y-99117296D01*
X23952194Y-99144246D01*
X23965628Y-99172650D01*
X23976213Y-99202234D01*
X23983848Y-99232713D01*
X23988458Y-99263793D01*
X23990000Y-99295176D01*
X23990000Y-100804824D01*
X23988458Y-100836207D01*
X23983848Y-100867287D01*
X23976213Y-100897766D01*
X23965628Y-100927350D01*
X23952194Y-100955754D01*
X23936041Y-100982704D01*
X23917323Y-101007942D01*
X23896223Y-101031223D01*
X23872942Y-101052323D01*
X23847704Y-101071041D01*
X23820754Y-101087194D01*
X23792350Y-101100628D01*
X23762766Y-101111213D01*
X23732287Y-101118848D01*
X23701207Y-101123458D01*
X23669824Y-101125000D01*
X22485176Y-101125000D01*
X22453793Y-101123458D01*
X22422713Y-101118848D01*
X22392234Y-101111213D01*
X22362650Y-101100628D01*
X22334246Y-101087194D01*
X22307296Y-101071041D01*
X22282058Y-101052323D01*
X22258777Y-101031223D01*
X22237677Y-101007942D01*
X22218959Y-100982704D01*
X22202806Y-100955754D01*
X22189372Y-100927350D01*
X22178787Y-100897766D01*
X22171152Y-100867287D01*
X22166542Y-100836207D01*
X22165000Y-100804824D01*
X22165000Y-99295176D01*
X22166542Y-99263793D01*
X22171152Y-99232713D01*
X22178787Y-99202234D01*
X22189372Y-99172650D01*
X22202806Y-99144246D01*
X22218959Y-99117296D01*
X22237677Y-99092058D01*
X22258777Y-99068777D01*
X22282058Y-99047677D01*
X22307296Y-99028959D01*
X22334246Y-99012806D01*
X22362650Y-98999372D01*
X22392234Y-98988787D01*
X22422713Y-98981152D01*
X22453793Y-98976542D01*
X22485176Y-98975000D01*
X23669824Y-98975000D01*
X23701207Y-98976542D01*
X23701207Y-98976542D01*
G37*
D16*
X23077500Y-100050000D03*
D12*
G36*
X20726207Y-98976542D02*
X20757287Y-98981152D01*
X20787766Y-98988787D01*
X20817350Y-98999372D01*
X20845754Y-99012806D01*
X20872704Y-99028959D01*
X20897942Y-99047677D01*
X20921223Y-99068777D01*
X20942323Y-99092058D01*
X20961041Y-99117296D01*
X20977194Y-99144246D01*
X20990628Y-99172650D01*
X21001213Y-99202234D01*
X21008848Y-99232713D01*
X21013458Y-99263793D01*
X21015000Y-99295176D01*
X21015000Y-100804824D01*
X21013458Y-100836207D01*
X21008848Y-100867287D01*
X21001213Y-100897766D01*
X20990628Y-100927350D01*
X20977194Y-100955754D01*
X20961041Y-100982704D01*
X20942323Y-101007942D01*
X20921223Y-101031223D01*
X20897942Y-101052323D01*
X20872704Y-101071041D01*
X20845754Y-101087194D01*
X20817350Y-101100628D01*
X20787766Y-101111213D01*
X20757287Y-101118848D01*
X20726207Y-101123458D01*
X20694824Y-101125000D01*
X19510176Y-101125000D01*
X19478793Y-101123458D01*
X19447713Y-101118848D01*
X19417234Y-101111213D01*
X19387650Y-101100628D01*
X19359246Y-101087194D01*
X19332296Y-101071041D01*
X19307058Y-101052323D01*
X19283777Y-101031223D01*
X19262677Y-101007942D01*
X19243959Y-100982704D01*
X19227806Y-100955754D01*
X19214372Y-100927350D01*
X19203787Y-100897766D01*
X19196152Y-100867287D01*
X19191542Y-100836207D01*
X19190000Y-100804824D01*
X19190000Y-99295176D01*
X19191542Y-99263793D01*
X19196152Y-99232713D01*
X19203787Y-99202234D01*
X19214372Y-99172650D01*
X19227806Y-99144246D01*
X19243959Y-99117296D01*
X19262677Y-99092058D01*
X19283777Y-99068777D01*
X19307058Y-99047677D01*
X19332296Y-99028959D01*
X19359246Y-99012806D01*
X19387650Y-98999372D01*
X19417234Y-98988787D01*
X19447713Y-98981152D01*
X19478793Y-98976542D01*
X19510176Y-98975000D01*
X20694824Y-98975000D01*
X20726207Y-98976542D01*
X20726207Y-98976542D01*
G37*
D16*
X20102500Y-100050000D03*
D12*
G36*
X23701207Y-86556542D02*
X23732287Y-86561152D01*
X23762766Y-86568787D01*
X23792350Y-86579372D01*
X23820754Y-86592806D01*
X23847704Y-86608959D01*
X23872942Y-86627677D01*
X23896223Y-86648777D01*
X23917323Y-86672058D01*
X23936041Y-86697296D01*
X23952194Y-86724246D01*
X23965628Y-86752650D01*
X23976213Y-86782234D01*
X23983848Y-86812713D01*
X23988458Y-86843793D01*
X23990000Y-86875176D01*
X23990000Y-88384824D01*
X23988458Y-88416207D01*
X23983848Y-88447287D01*
X23976213Y-88477766D01*
X23965628Y-88507350D01*
X23952194Y-88535754D01*
X23936041Y-88562704D01*
X23917323Y-88587942D01*
X23896223Y-88611223D01*
X23872942Y-88632323D01*
X23847704Y-88651041D01*
X23820754Y-88667194D01*
X23792350Y-88680628D01*
X23762766Y-88691213D01*
X23732287Y-88698848D01*
X23701207Y-88703458D01*
X23669824Y-88705000D01*
X22485176Y-88705000D01*
X22453793Y-88703458D01*
X22422713Y-88698848D01*
X22392234Y-88691213D01*
X22362650Y-88680628D01*
X22334246Y-88667194D01*
X22307296Y-88651041D01*
X22282058Y-88632323D01*
X22258777Y-88611223D01*
X22237677Y-88587942D01*
X22218959Y-88562704D01*
X22202806Y-88535754D01*
X22189372Y-88507350D01*
X22178787Y-88477766D01*
X22171152Y-88447287D01*
X22166542Y-88416207D01*
X22165000Y-88384824D01*
X22165000Y-86875176D01*
X22166542Y-86843793D01*
X22171152Y-86812713D01*
X22178787Y-86782234D01*
X22189372Y-86752650D01*
X22202806Y-86724246D01*
X22218959Y-86697296D01*
X22237677Y-86672058D01*
X22258777Y-86648777D01*
X22282058Y-86627677D01*
X22307296Y-86608959D01*
X22334246Y-86592806D01*
X22362650Y-86579372D01*
X22392234Y-86568787D01*
X22422713Y-86561152D01*
X22453793Y-86556542D01*
X22485176Y-86555000D01*
X23669824Y-86555000D01*
X23701207Y-86556542D01*
X23701207Y-86556542D01*
G37*
D16*
X23077500Y-87630000D03*
D12*
G36*
X20726207Y-86556542D02*
X20757287Y-86561152D01*
X20787766Y-86568787D01*
X20817350Y-86579372D01*
X20845754Y-86592806D01*
X20872704Y-86608959D01*
X20897942Y-86627677D01*
X20921223Y-86648777D01*
X20942323Y-86672058D01*
X20961041Y-86697296D01*
X20977194Y-86724246D01*
X20990628Y-86752650D01*
X21001213Y-86782234D01*
X21008848Y-86812713D01*
X21013458Y-86843793D01*
X21015000Y-86875176D01*
X21015000Y-88384824D01*
X21013458Y-88416207D01*
X21008848Y-88447287D01*
X21001213Y-88477766D01*
X20990628Y-88507350D01*
X20977194Y-88535754D01*
X20961041Y-88562704D01*
X20942323Y-88587942D01*
X20921223Y-88611223D01*
X20897942Y-88632323D01*
X20872704Y-88651041D01*
X20845754Y-88667194D01*
X20817350Y-88680628D01*
X20787766Y-88691213D01*
X20757287Y-88698848D01*
X20726207Y-88703458D01*
X20694824Y-88705000D01*
X19510176Y-88705000D01*
X19478793Y-88703458D01*
X19447713Y-88698848D01*
X19417234Y-88691213D01*
X19387650Y-88680628D01*
X19359246Y-88667194D01*
X19332296Y-88651041D01*
X19307058Y-88632323D01*
X19283777Y-88611223D01*
X19262677Y-88587942D01*
X19243959Y-88562704D01*
X19227806Y-88535754D01*
X19214372Y-88507350D01*
X19203787Y-88477766D01*
X19196152Y-88447287D01*
X19191542Y-88416207D01*
X19190000Y-88384824D01*
X19190000Y-86875176D01*
X19191542Y-86843793D01*
X19196152Y-86812713D01*
X19203787Y-86782234D01*
X19214372Y-86752650D01*
X19227806Y-86724246D01*
X19243959Y-86697296D01*
X19262677Y-86672058D01*
X19283777Y-86648777D01*
X19307058Y-86627677D01*
X19332296Y-86608959D01*
X19359246Y-86592806D01*
X19387650Y-86579372D01*
X19417234Y-86568787D01*
X19447713Y-86561152D01*
X19478793Y-86556542D01*
X19510176Y-86555000D01*
X20694824Y-86555000D01*
X20726207Y-86556542D01*
X20726207Y-86556542D01*
G37*
D16*
X20102500Y-87630000D03*
D12*
G36*
X45532304Y-53660506D02*
X45563384Y-53665116D01*
X45593863Y-53672751D01*
X45623447Y-53683336D01*
X45651851Y-53696770D01*
X45678801Y-53712923D01*
X45704039Y-53731641D01*
X45727320Y-53752741D01*
X45748420Y-53776022D01*
X45767138Y-53801260D01*
X45783291Y-53828210D01*
X45796725Y-53856614D01*
X45807310Y-53886198D01*
X45814945Y-53916677D01*
X45819555Y-53947757D01*
X45821097Y-53979140D01*
X45821097Y-55488788D01*
X45819555Y-55520171D01*
X45814945Y-55551251D01*
X45807310Y-55581730D01*
X45796725Y-55611314D01*
X45783291Y-55639718D01*
X45767138Y-55666668D01*
X45748420Y-55691906D01*
X45727320Y-55715187D01*
X45704039Y-55736287D01*
X45678801Y-55755005D01*
X45651851Y-55771158D01*
X45623447Y-55784592D01*
X45593863Y-55795177D01*
X45563384Y-55802812D01*
X45532304Y-55807422D01*
X45500921Y-55808964D01*
X44316273Y-55808964D01*
X44284890Y-55807422D01*
X44253810Y-55802812D01*
X44223331Y-55795177D01*
X44193747Y-55784592D01*
X44165343Y-55771158D01*
X44138393Y-55755005D01*
X44113155Y-55736287D01*
X44089874Y-55715187D01*
X44068774Y-55691906D01*
X44050056Y-55666668D01*
X44033903Y-55639718D01*
X44020469Y-55611314D01*
X44009884Y-55581730D01*
X44002249Y-55551251D01*
X43997639Y-55520171D01*
X43996097Y-55488788D01*
X43996097Y-53979140D01*
X43997639Y-53947757D01*
X44002249Y-53916677D01*
X44009884Y-53886198D01*
X44020469Y-53856614D01*
X44033903Y-53828210D01*
X44050056Y-53801260D01*
X44068774Y-53776022D01*
X44089874Y-53752741D01*
X44113155Y-53731641D01*
X44138393Y-53712923D01*
X44165343Y-53696770D01*
X44193747Y-53683336D01*
X44223331Y-53672751D01*
X44253810Y-53665116D01*
X44284890Y-53660506D01*
X44316273Y-53658964D01*
X45500921Y-53658964D01*
X45532304Y-53660506D01*
X45532304Y-53660506D01*
G37*
D16*
X44908597Y-54733964D03*
D12*
G36*
X42557304Y-53660506D02*
X42588384Y-53665116D01*
X42618863Y-53672751D01*
X42648447Y-53683336D01*
X42676851Y-53696770D01*
X42703801Y-53712923D01*
X42729039Y-53731641D01*
X42752320Y-53752741D01*
X42773420Y-53776022D01*
X42792138Y-53801260D01*
X42808291Y-53828210D01*
X42821725Y-53856614D01*
X42832310Y-53886198D01*
X42839945Y-53916677D01*
X42844555Y-53947757D01*
X42846097Y-53979140D01*
X42846097Y-55488788D01*
X42844555Y-55520171D01*
X42839945Y-55551251D01*
X42832310Y-55581730D01*
X42821725Y-55611314D01*
X42808291Y-55639718D01*
X42792138Y-55666668D01*
X42773420Y-55691906D01*
X42752320Y-55715187D01*
X42729039Y-55736287D01*
X42703801Y-55755005D01*
X42676851Y-55771158D01*
X42648447Y-55784592D01*
X42618863Y-55795177D01*
X42588384Y-55802812D01*
X42557304Y-55807422D01*
X42525921Y-55808964D01*
X41341273Y-55808964D01*
X41309890Y-55807422D01*
X41278810Y-55802812D01*
X41248331Y-55795177D01*
X41218747Y-55784592D01*
X41190343Y-55771158D01*
X41163393Y-55755005D01*
X41138155Y-55736287D01*
X41114874Y-55715187D01*
X41093774Y-55691906D01*
X41075056Y-55666668D01*
X41058903Y-55639718D01*
X41045469Y-55611314D01*
X41034884Y-55581730D01*
X41027249Y-55551251D01*
X41022639Y-55520171D01*
X41021097Y-55488788D01*
X41021097Y-53979140D01*
X41022639Y-53947757D01*
X41027249Y-53916677D01*
X41034884Y-53886198D01*
X41045469Y-53856614D01*
X41058903Y-53828210D01*
X41075056Y-53801260D01*
X41093774Y-53776022D01*
X41114874Y-53752741D01*
X41138155Y-53731641D01*
X41163393Y-53712923D01*
X41190343Y-53696770D01*
X41218747Y-53683336D01*
X41248331Y-53672751D01*
X41278810Y-53665116D01*
X41309890Y-53660506D01*
X41341273Y-53658964D01*
X42525921Y-53658964D01*
X42557304Y-53660506D01*
X42557304Y-53660506D01*
G37*
D16*
X41933597Y-54733964D03*
D17*
X10160000Y-87010000D03*
D12*
G36*
X5093315Y-85064093D02*
X5175827Y-85076333D01*
X5256742Y-85096601D01*
X5335281Y-85124702D01*
X5410687Y-85160367D01*
X5482235Y-85203251D01*
X5549234Y-85252941D01*
X5611041Y-85308959D01*
X5667059Y-85370766D01*
X5716749Y-85437765D01*
X5759633Y-85509313D01*
X5795298Y-85584719D01*
X5823399Y-85663258D01*
X5843667Y-85744173D01*
X5855907Y-85826685D01*
X5860000Y-85910000D01*
X5860000Y-88110000D01*
X5855907Y-88193315D01*
X5843667Y-88275827D01*
X5823399Y-88356742D01*
X5795298Y-88435281D01*
X5759633Y-88510687D01*
X5716749Y-88582235D01*
X5667059Y-88649234D01*
X5611041Y-88711041D01*
X5549234Y-88767059D01*
X5482235Y-88816749D01*
X5410687Y-88859633D01*
X5335281Y-88895298D01*
X5256742Y-88923399D01*
X5175827Y-88943667D01*
X5093315Y-88955907D01*
X5010000Y-88960000D01*
X3310000Y-88960000D01*
X3226685Y-88955907D01*
X3144173Y-88943667D01*
X3063258Y-88923399D01*
X2984719Y-88895298D01*
X2909313Y-88859633D01*
X2837765Y-88816749D01*
X2770766Y-88767059D01*
X2708959Y-88711041D01*
X2652941Y-88649234D01*
X2603251Y-88582235D01*
X2560367Y-88510687D01*
X2524702Y-88435281D01*
X2496601Y-88356742D01*
X2476333Y-88275827D01*
X2464093Y-88193315D01*
X2460000Y-88110000D01*
X2460000Y-85910000D01*
X2464093Y-85826685D01*
X2476333Y-85744173D01*
X2496601Y-85663258D01*
X2524702Y-85584719D01*
X2560367Y-85509313D01*
X2603251Y-85437765D01*
X2652941Y-85370766D01*
X2708959Y-85308959D01*
X2770766Y-85252941D01*
X2837765Y-85203251D01*
X2909313Y-85160367D01*
X2984719Y-85124702D01*
X3063258Y-85096601D01*
X3144173Y-85076333D01*
X3226685Y-85064093D01*
X3310000Y-85060000D01*
X5010000Y-85060000D01*
X5093315Y-85064093D01*
X5093315Y-85064093D01*
G37*
D18*
X4160000Y-87010000D03*
D12*
G36*
X8230567Y-89764695D02*
X8325213Y-89778734D01*
X8418028Y-89801983D01*
X8508116Y-89834217D01*
X8594612Y-89875127D01*
X8676681Y-89924317D01*
X8753533Y-89981315D01*
X8824429Y-90045571D01*
X8888685Y-90116467D01*
X8945683Y-90193319D01*
X8994873Y-90275388D01*
X9035783Y-90361884D01*
X9068017Y-90451972D01*
X9091266Y-90544787D01*
X9105305Y-90639433D01*
X9110000Y-90735000D01*
X9110000Y-92685000D01*
X9105305Y-92780567D01*
X9091266Y-92875213D01*
X9068017Y-92968028D01*
X9035783Y-93058116D01*
X8994873Y-93144612D01*
X8945683Y-93226681D01*
X8888685Y-93303533D01*
X8824429Y-93374429D01*
X8753533Y-93438685D01*
X8676681Y-93495683D01*
X8594612Y-93544873D01*
X8508116Y-93585783D01*
X8418028Y-93618017D01*
X8325213Y-93641266D01*
X8230567Y-93655305D01*
X8135000Y-93660000D01*
X6185000Y-93660000D01*
X6089433Y-93655305D01*
X5994787Y-93641266D01*
X5901972Y-93618017D01*
X5811884Y-93585783D01*
X5725388Y-93544873D01*
X5643319Y-93495683D01*
X5566467Y-93438685D01*
X5495571Y-93374429D01*
X5431315Y-93303533D01*
X5374317Y-93226681D01*
X5325127Y-93144612D01*
X5284217Y-93058116D01*
X5251983Y-92968028D01*
X5228734Y-92875213D01*
X5214695Y-92780567D01*
X5210000Y-92685000D01*
X5210000Y-90735000D01*
X5214695Y-90639433D01*
X5228734Y-90544787D01*
X5251983Y-90451972D01*
X5284217Y-90361884D01*
X5325127Y-90275388D01*
X5374317Y-90193319D01*
X5431315Y-90116467D01*
X5495571Y-90045571D01*
X5566467Y-89981315D01*
X5643319Y-89924317D01*
X5725388Y-89875127D01*
X5811884Y-89834217D01*
X5901972Y-89801983D01*
X5994787Y-89778734D01*
X6089433Y-89764695D01*
X6185000Y-89760000D01*
X8135000Y-89760000D01*
X8230567Y-89764695D01*
X8230567Y-89764695D01*
G37*
D19*
X7160000Y-91710000D03*
D20*
X30480000Y-114300000D03*
X30480000Y-110900000D03*
X20560000Y-114300000D03*
X20560000Y-110900000D03*
D15*
X64850000Y-51000000D03*
D12*
G36*
X65350000Y-50550000D02*
X65550000Y-50550000D01*
X65550000Y-50700000D01*
X65750000Y-50700000D01*
X65750000Y-51300000D01*
X65550000Y-51300000D01*
X65550000Y-51450000D01*
X65350000Y-51450000D01*
X65350000Y-51750000D01*
X64850000Y-51750000D01*
X64850000Y-51749398D01*
X64825466Y-51749398D01*
X64776635Y-51744588D01*
X64728510Y-51735016D01*
X64681555Y-51720772D01*
X64636222Y-51701995D01*
X64592949Y-51678864D01*
X64552150Y-51651604D01*
X64514221Y-51620476D01*
X64479524Y-51585779D01*
X64448396Y-51547850D01*
X64421136Y-51507051D01*
X64398005Y-51463778D01*
X64392298Y-51450000D01*
X64150000Y-51450000D01*
X64150000Y-50550000D01*
X64392298Y-50550000D01*
X64398005Y-50536222D01*
X64421136Y-50492949D01*
X64448396Y-50452150D01*
X64479524Y-50414221D01*
X64514221Y-50379524D01*
X64552150Y-50348396D01*
X64592949Y-50321136D01*
X64636222Y-50298005D01*
X64681555Y-50279228D01*
X64728510Y-50264984D01*
X64776635Y-50255412D01*
X64825466Y-50250602D01*
X64850000Y-50250602D01*
X64850000Y-50250000D01*
X65350000Y-50250000D01*
X65350000Y-50550000D01*
X65350000Y-50550000D01*
G37*
D15*
X66150000Y-51000000D03*
D12*
G36*
X66150000Y-50250602D02*
X66174534Y-50250602D01*
X66223365Y-50255412D01*
X66271490Y-50264984D01*
X66318445Y-50279228D01*
X66363778Y-50298005D01*
X66407051Y-50321136D01*
X66447850Y-50348396D01*
X66485779Y-50379524D01*
X66520476Y-50414221D01*
X66551604Y-50452150D01*
X66578864Y-50492949D01*
X66601995Y-50536222D01*
X66607702Y-50550000D01*
X66850000Y-50550000D01*
X66850000Y-51450000D01*
X66607702Y-51450000D01*
X66601995Y-51463778D01*
X66578864Y-51507051D01*
X66551604Y-51547850D01*
X66520476Y-51585779D01*
X66485779Y-51620476D01*
X66447850Y-51651604D01*
X66407051Y-51678864D01*
X66363778Y-51701995D01*
X66318445Y-51720772D01*
X66271490Y-51735016D01*
X66223365Y-51744588D01*
X66174534Y-51749398D01*
X66150000Y-51749398D01*
X66150000Y-51750000D01*
X65650000Y-51750000D01*
X65650000Y-51450000D01*
X65450000Y-51450000D01*
X65450000Y-50550000D01*
X65650000Y-50550000D01*
X65650000Y-50250000D01*
X66150000Y-50250000D01*
X66150000Y-50250602D01*
X66150000Y-50250602D01*
G37*
D15*
X66150000Y-70500000D03*
D12*
G36*
X66150000Y-69750602D02*
X66174534Y-69750602D01*
X66223365Y-69755412D01*
X66271490Y-69764984D01*
X66318445Y-69779228D01*
X66363778Y-69798005D01*
X66407051Y-69821136D01*
X66447850Y-69848396D01*
X66485779Y-69879524D01*
X66520476Y-69914221D01*
X66551604Y-69952150D01*
X66578864Y-69992949D01*
X66601995Y-70036222D01*
X66607702Y-70050000D01*
X66850000Y-70050000D01*
X66850000Y-70950000D01*
X66607702Y-70950000D01*
X66601995Y-70963778D01*
X66578864Y-71007051D01*
X66551604Y-71047850D01*
X66520476Y-71085779D01*
X66485779Y-71120476D01*
X66447850Y-71151604D01*
X66407051Y-71178864D01*
X66363778Y-71201995D01*
X66318445Y-71220772D01*
X66271490Y-71235016D01*
X66223365Y-71244588D01*
X66174534Y-71249398D01*
X66150000Y-71249398D01*
X66150000Y-71250000D01*
X65650000Y-71250000D01*
X65650000Y-70950000D01*
X65450000Y-70950000D01*
X65450000Y-70050000D01*
X65650000Y-70050000D01*
X65650000Y-69750000D01*
X66150000Y-69750000D01*
X66150000Y-69750602D01*
X66150000Y-69750602D01*
G37*
D15*
X64850000Y-70500000D03*
D12*
G36*
X65350000Y-70050000D02*
X65550000Y-70050000D01*
X65550000Y-70200000D01*
X65750000Y-70200000D01*
X65750000Y-70800000D01*
X65550000Y-70800000D01*
X65550000Y-70950000D01*
X65350000Y-70950000D01*
X65350000Y-71250000D01*
X64850000Y-71250000D01*
X64850000Y-71249398D01*
X64825466Y-71249398D01*
X64776635Y-71244588D01*
X64728510Y-71235016D01*
X64681555Y-71220772D01*
X64636222Y-71201995D01*
X64592949Y-71178864D01*
X64552150Y-71151604D01*
X64514221Y-71120476D01*
X64479524Y-71085779D01*
X64448396Y-71047850D01*
X64421136Y-71007051D01*
X64398005Y-70963778D01*
X64392298Y-70950000D01*
X64150000Y-70950000D01*
X64150000Y-70050000D01*
X64392298Y-70050000D01*
X64398005Y-70036222D01*
X64421136Y-69992949D01*
X64448396Y-69952150D01*
X64479524Y-69914221D01*
X64514221Y-69879524D01*
X64552150Y-69848396D01*
X64592949Y-69821136D01*
X64636222Y-69798005D01*
X64681555Y-69779228D01*
X64728510Y-69764984D01*
X64776635Y-69755412D01*
X64825466Y-69750602D01*
X64850000Y-69750602D01*
X64850000Y-69750000D01*
X65350000Y-69750000D01*
X65350000Y-70050000D01*
X65350000Y-70050000D01*
G37*
D15*
X64850000Y-65500000D03*
D12*
G36*
X65350000Y-65050000D02*
X65550000Y-65050000D01*
X65550000Y-65200000D01*
X65750000Y-65200000D01*
X65750000Y-65800000D01*
X65550000Y-65800000D01*
X65550000Y-65950000D01*
X65350000Y-65950000D01*
X65350000Y-66250000D01*
X64850000Y-66250000D01*
X64850000Y-66249398D01*
X64825466Y-66249398D01*
X64776635Y-66244588D01*
X64728510Y-66235016D01*
X64681555Y-66220772D01*
X64636222Y-66201995D01*
X64592949Y-66178864D01*
X64552150Y-66151604D01*
X64514221Y-66120476D01*
X64479524Y-66085779D01*
X64448396Y-66047850D01*
X64421136Y-66007051D01*
X64398005Y-65963778D01*
X64392298Y-65950000D01*
X64150000Y-65950000D01*
X64150000Y-65050000D01*
X64392298Y-65050000D01*
X64398005Y-65036222D01*
X64421136Y-64992949D01*
X64448396Y-64952150D01*
X64479524Y-64914221D01*
X64514221Y-64879524D01*
X64552150Y-64848396D01*
X64592949Y-64821136D01*
X64636222Y-64798005D01*
X64681555Y-64779228D01*
X64728510Y-64764984D01*
X64776635Y-64755412D01*
X64825466Y-64750602D01*
X64850000Y-64750602D01*
X64850000Y-64750000D01*
X65350000Y-64750000D01*
X65350000Y-65050000D01*
X65350000Y-65050000D01*
G37*
D15*
X66150000Y-65500000D03*
D12*
G36*
X66150000Y-64750602D02*
X66174534Y-64750602D01*
X66223365Y-64755412D01*
X66271490Y-64764984D01*
X66318445Y-64779228D01*
X66363778Y-64798005D01*
X66407051Y-64821136D01*
X66447850Y-64848396D01*
X66485779Y-64879524D01*
X66520476Y-64914221D01*
X66551604Y-64952150D01*
X66578864Y-64992949D01*
X66601995Y-65036222D01*
X66607702Y-65050000D01*
X66850000Y-65050000D01*
X66850000Y-65950000D01*
X66607702Y-65950000D01*
X66601995Y-65963778D01*
X66578864Y-66007051D01*
X66551604Y-66047850D01*
X66520476Y-66085779D01*
X66485779Y-66120476D01*
X66447850Y-66151604D01*
X66407051Y-66178864D01*
X66363778Y-66201995D01*
X66318445Y-66220772D01*
X66271490Y-66235016D01*
X66223365Y-66244588D01*
X66174534Y-66249398D01*
X66150000Y-66249398D01*
X66150000Y-66250000D01*
X65650000Y-66250000D01*
X65650000Y-65950000D01*
X65450000Y-65950000D01*
X65450000Y-65050000D01*
X65650000Y-65050000D01*
X65650000Y-64750000D01*
X66150000Y-64750000D01*
X66150000Y-64750602D01*
X66150000Y-64750602D01*
G37*
D15*
X66150000Y-48500000D03*
D12*
G36*
X66150000Y-47750602D02*
X66174534Y-47750602D01*
X66223365Y-47755412D01*
X66271490Y-47764984D01*
X66318445Y-47779228D01*
X66363778Y-47798005D01*
X66407051Y-47821136D01*
X66447850Y-47848396D01*
X66485779Y-47879524D01*
X66520476Y-47914221D01*
X66551604Y-47952150D01*
X66578864Y-47992949D01*
X66601995Y-48036222D01*
X66607702Y-48050000D01*
X66850000Y-48050000D01*
X66850000Y-48950000D01*
X66607702Y-48950000D01*
X66601995Y-48963778D01*
X66578864Y-49007051D01*
X66551604Y-49047850D01*
X66520476Y-49085779D01*
X66485779Y-49120476D01*
X66447850Y-49151604D01*
X66407051Y-49178864D01*
X66363778Y-49201995D01*
X66318445Y-49220772D01*
X66271490Y-49235016D01*
X66223365Y-49244588D01*
X66174534Y-49249398D01*
X66150000Y-49249398D01*
X66150000Y-49250000D01*
X65650000Y-49250000D01*
X65650000Y-48950000D01*
X65450000Y-48950000D01*
X65450000Y-48050000D01*
X65650000Y-48050000D01*
X65650000Y-47750000D01*
X66150000Y-47750000D01*
X66150000Y-47750602D01*
X66150000Y-47750602D01*
G37*
D15*
X64850000Y-48500000D03*
D12*
G36*
X65350000Y-48050000D02*
X65550000Y-48050000D01*
X65550000Y-48200000D01*
X65750000Y-48200000D01*
X65750000Y-48800000D01*
X65550000Y-48800000D01*
X65550000Y-48950000D01*
X65350000Y-48950000D01*
X65350000Y-49250000D01*
X64850000Y-49250000D01*
X64850000Y-49249398D01*
X64825466Y-49249398D01*
X64776635Y-49244588D01*
X64728510Y-49235016D01*
X64681555Y-49220772D01*
X64636222Y-49201995D01*
X64592949Y-49178864D01*
X64552150Y-49151604D01*
X64514221Y-49120476D01*
X64479524Y-49085779D01*
X64448396Y-49047850D01*
X64421136Y-49007051D01*
X64398005Y-48963778D01*
X64392298Y-48950000D01*
X64150000Y-48950000D01*
X64150000Y-48050000D01*
X64392298Y-48050000D01*
X64398005Y-48036222D01*
X64421136Y-47992949D01*
X64448396Y-47952150D01*
X64479524Y-47914221D01*
X64514221Y-47879524D01*
X64552150Y-47848396D01*
X64592949Y-47821136D01*
X64636222Y-47798005D01*
X64681555Y-47779228D01*
X64728510Y-47764984D01*
X64776635Y-47755412D01*
X64825466Y-47750602D01*
X64850000Y-47750602D01*
X64850000Y-47750000D01*
X65350000Y-47750000D01*
X65350000Y-48050000D01*
X65350000Y-48050000D01*
G37*
D15*
X64850000Y-68000000D03*
D12*
G36*
X65350000Y-67550000D02*
X65550000Y-67550000D01*
X65550000Y-67700000D01*
X65750000Y-67700000D01*
X65750000Y-68300000D01*
X65550000Y-68300000D01*
X65550000Y-68450000D01*
X65350000Y-68450000D01*
X65350000Y-68750000D01*
X64850000Y-68750000D01*
X64850000Y-68749398D01*
X64825466Y-68749398D01*
X64776635Y-68744588D01*
X64728510Y-68735016D01*
X64681555Y-68720772D01*
X64636222Y-68701995D01*
X64592949Y-68678864D01*
X64552150Y-68651604D01*
X64514221Y-68620476D01*
X64479524Y-68585779D01*
X64448396Y-68547850D01*
X64421136Y-68507051D01*
X64398005Y-68463778D01*
X64392298Y-68450000D01*
X64150000Y-68450000D01*
X64150000Y-67550000D01*
X64392298Y-67550000D01*
X64398005Y-67536222D01*
X64421136Y-67492949D01*
X64448396Y-67452150D01*
X64479524Y-67414221D01*
X64514221Y-67379524D01*
X64552150Y-67348396D01*
X64592949Y-67321136D01*
X64636222Y-67298005D01*
X64681555Y-67279228D01*
X64728510Y-67264984D01*
X64776635Y-67255412D01*
X64825466Y-67250602D01*
X64850000Y-67250602D01*
X64850000Y-67250000D01*
X65350000Y-67250000D01*
X65350000Y-67550000D01*
X65350000Y-67550000D01*
G37*
D15*
X66150000Y-68000000D03*
D12*
G36*
X66150000Y-67250602D02*
X66174534Y-67250602D01*
X66223365Y-67255412D01*
X66271490Y-67264984D01*
X66318445Y-67279228D01*
X66363778Y-67298005D01*
X66407051Y-67321136D01*
X66447850Y-67348396D01*
X66485779Y-67379524D01*
X66520476Y-67414221D01*
X66551604Y-67452150D01*
X66578864Y-67492949D01*
X66601995Y-67536222D01*
X66607702Y-67550000D01*
X66850000Y-67550000D01*
X66850000Y-68450000D01*
X66607702Y-68450000D01*
X66601995Y-68463778D01*
X66578864Y-68507051D01*
X66551604Y-68547850D01*
X66520476Y-68585779D01*
X66485779Y-68620476D01*
X66447850Y-68651604D01*
X66407051Y-68678864D01*
X66363778Y-68701995D01*
X66318445Y-68720772D01*
X66271490Y-68735016D01*
X66223365Y-68744588D01*
X66174534Y-68749398D01*
X66150000Y-68749398D01*
X66150000Y-68750000D01*
X65650000Y-68750000D01*
X65650000Y-68450000D01*
X65450000Y-68450000D01*
X65450000Y-67550000D01*
X65650000Y-67550000D01*
X65650000Y-67250000D01*
X66150000Y-67250000D01*
X66150000Y-67250602D01*
X66150000Y-67250602D01*
G37*
G36*
X25425581Y-102196625D02*
X25458343Y-102201485D01*
X25490471Y-102209533D01*
X25521656Y-102220691D01*
X25551596Y-102234852D01*
X25580005Y-102251879D01*
X25606608Y-102271609D01*
X25631149Y-102293851D01*
X25653391Y-102318392D01*
X25673121Y-102344995D01*
X25690148Y-102373404D01*
X25704309Y-102403344D01*
X25715467Y-102434529D01*
X25723515Y-102466657D01*
X25728375Y-102499419D01*
X25730000Y-102532500D01*
X25730000Y-103207500D01*
X25728375Y-103240581D01*
X25723515Y-103273343D01*
X25715467Y-103305471D01*
X25704309Y-103336656D01*
X25690148Y-103366596D01*
X25673121Y-103395005D01*
X25653391Y-103421608D01*
X25631149Y-103446149D01*
X25606608Y-103468391D01*
X25580005Y-103488121D01*
X25551596Y-103505148D01*
X25521656Y-103519309D01*
X25490471Y-103530467D01*
X25458343Y-103538515D01*
X25425581Y-103543375D01*
X25392500Y-103545000D01*
X24617500Y-103545000D01*
X24584419Y-103543375D01*
X24551657Y-103538515D01*
X24519529Y-103530467D01*
X24488344Y-103519309D01*
X24458404Y-103505148D01*
X24429995Y-103488121D01*
X24403392Y-103468391D01*
X24378851Y-103446149D01*
X24356609Y-103421608D01*
X24336879Y-103395005D01*
X24319852Y-103366596D01*
X24305691Y-103336656D01*
X24294533Y-103305471D01*
X24286485Y-103273343D01*
X24281625Y-103240581D01*
X24280000Y-103207500D01*
X24280000Y-102532500D01*
X24281625Y-102499419D01*
X24286485Y-102466657D01*
X24294533Y-102434529D01*
X24305691Y-102403344D01*
X24319852Y-102373404D01*
X24336879Y-102344995D01*
X24356609Y-102318392D01*
X24378851Y-102293851D01*
X24403392Y-102271609D01*
X24429995Y-102251879D01*
X24458404Y-102234852D01*
X24488344Y-102220691D01*
X24519529Y-102209533D01*
X24551657Y-102201485D01*
X24584419Y-102196625D01*
X24617500Y-102195000D01*
X25392500Y-102195000D01*
X25425581Y-102196625D01*
X25425581Y-102196625D01*
G37*
D13*
X25005000Y-102870000D03*
D12*
G36*
X23675581Y-102196625D02*
X23708343Y-102201485D01*
X23740471Y-102209533D01*
X23771656Y-102220691D01*
X23801596Y-102234852D01*
X23830005Y-102251879D01*
X23856608Y-102271609D01*
X23881149Y-102293851D01*
X23903391Y-102318392D01*
X23923121Y-102344995D01*
X23940148Y-102373404D01*
X23954309Y-102403344D01*
X23965467Y-102434529D01*
X23973515Y-102466657D01*
X23978375Y-102499419D01*
X23980000Y-102532500D01*
X23980000Y-103207500D01*
X23978375Y-103240581D01*
X23973515Y-103273343D01*
X23965467Y-103305471D01*
X23954309Y-103336656D01*
X23940148Y-103366596D01*
X23923121Y-103395005D01*
X23903391Y-103421608D01*
X23881149Y-103446149D01*
X23856608Y-103468391D01*
X23830005Y-103488121D01*
X23801596Y-103505148D01*
X23771656Y-103519309D01*
X23740471Y-103530467D01*
X23708343Y-103538515D01*
X23675581Y-103543375D01*
X23642500Y-103545000D01*
X22867500Y-103545000D01*
X22834419Y-103543375D01*
X22801657Y-103538515D01*
X22769529Y-103530467D01*
X22738344Y-103519309D01*
X22708404Y-103505148D01*
X22679995Y-103488121D01*
X22653392Y-103468391D01*
X22628851Y-103446149D01*
X22606609Y-103421608D01*
X22586879Y-103395005D01*
X22569852Y-103366596D01*
X22555691Y-103336656D01*
X22544533Y-103305471D01*
X22536485Y-103273343D01*
X22531625Y-103240581D01*
X22530000Y-103207500D01*
X22530000Y-102532500D01*
X22531625Y-102499419D01*
X22536485Y-102466657D01*
X22544533Y-102434529D01*
X22555691Y-102403344D01*
X22569852Y-102373404D01*
X22586879Y-102344995D01*
X22606609Y-102318392D01*
X22628851Y-102293851D01*
X22653392Y-102271609D01*
X22679995Y-102251879D01*
X22708404Y-102234852D01*
X22738344Y-102220691D01*
X22769529Y-102209533D01*
X22801657Y-102201485D01*
X22834419Y-102196625D01*
X22867500Y-102195000D01*
X23642500Y-102195000D01*
X23675581Y-102196625D01*
X23675581Y-102196625D01*
G37*
D13*
X23255000Y-102870000D03*
D12*
G36*
X23675581Y-83146625D02*
X23708343Y-83151485D01*
X23740471Y-83159533D01*
X23771656Y-83170691D01*
X23801596Y-83184852D01*
X23830005Y-83201879D01*
X23856608Y-83221609D01*
X23881149Y-83243851D01*
X23903391Y-83268392D01*
X23923121Y-83294995D01*
X23940148Y-83323404D01*
X23954309Y-83353344D01*
X23965467Y-83384529D01*
X23973515Y-83416657D01*
X23978375Y-83449419D01*
X23980000Y-83482500D01*
X23980000Y-84157500D01*
X23978375Y-84190581D01*
X23973515Y-84223343D01*
X23965467Y-84255471D01*
X23954309Y-84286656D01*
X23940148Y-84316596D01*
X23923121Y-84345005D01*
X23903391Y-84371608D01*
X23881149Y-84396149D01*
X23856608Y-84418391D01*
X23830005Y-84438121D01*
X23801596Y-84455148D01*
X23771656Y-84469309D01*
X23740471Y-84480467D01*
X23708343Y-84488515D01*
X23675581Y-84493375D01*
X23642500Y-84495000D01*
X22867500Y-84495000D01*
X22834419Y-84493375D01*
X22801657Y-84488515D01*
X22769529Y-84480467D01*
X22738344Y-84469309D01*
X22708404Y-84455148D01*
X22679995Y-84438121D01*
X22653392Y-84418391D01*
X22628851Y-84396149D01*
X22606609Y-84371608D01*
X22586879Y-84345005D01*
X22569852Y-84316596D01*
X22555691Y-84286656D01*
X22544533Y-84255471D01*
X22536485Y-84223343D01*
X22531625Y-84190581D01*
X22530000Y-84157500D01*
X22530000Y-83482500D01*
X22531625Y-83449419D01*
X22536485Y-83416657D01*
X22544533Y-83384529D01*
X22555691Y-83353344D01*
X22569852Y-83323404D01*
X22586879Y-83294995D01*
X22606609Y-83268392D01*
X22628851Y-83243851D01*
X22653392Y-83221609D01*
X22679995Y-83201879D01*
X22708404Y-83184852D01*
X22738344Y-83170691D01*
X22769529Y-83159533D01*
X22801657Y-83151485D01*
X22834419Y-83146625D01*
X22867500Y-83145000D01*
X23642500Y-83145000D01*
X23675581Y-83146625D01*
X23675581Y-83146625D01*
G37*
D13*
X23255000Y-83820000D03*
D12*
G36*
X25425581Y-83146625D02*
X25458343Y-83151485D01*
X25490471Y-83159533D01*
X25521656Y-83170691D01*
X25551596Y-83184852D01*
X25580005Y-83201879D01*
X25606608Y-83221609D01*
X25631149Y-83243851D01*
X25653391Y-83268392D01*
X25673121Y-83294995D01*
X25690148Y-83323404D01*
X25704309Y-83353344D01*
X25715467Y-83384529D01*
X25723515Y-83416657D01*
X25728375Y-83449419D01*
X25730000Y-83482500D01*
X25730000Y-84157500D01*
X25728375Y-84190581D01*
X25723515Y-84223343D01*
X25715467Y-84255471D01*
X25704309Y-84286656D01*
X25690148Y-84316596D01*
X25673121Y-84345005D01*
X25653391Y-84371608D01*
X25631149Y-84396149D01*
X25606608Y-84418391D01*
X25580005Y-84438121D01*
X25551596Y-84455148D01*
X25521656Y-84469309D01*
X25490471Y-84480467D01*
X25458343Y-84488515D01*
X25425581Y-84493375D01*
X25392500Y-84495000D01*
X24617500Y-84495000D01*
X24584419Y-84493375D01*
X24551657Y-84488515D01*
X24519529Y-84480467D01*
X24488344Y-84469309D01*
X24458404Y-84455148D01*
X24429995Y-84438121D01*
X24403392Y-84418391D01*
X24378851Y-84396149D01*
X24356609Y-84371608D01*
X24336879Y-84345005D01*
X24319852Y-84316596D01*
X24305691Y-84286656D01*
X24294533Y-84255471D01*
X24286485Y-84223343D01*
X24281625Y-84190581D01*
X24280000Y-84157500D01*
X24280000Y-83482500D01*
X24281625Y-83449419D01*
X24286485Y-83416657D01*
X24294533Y-83384529D01*
X24305691Y-83353344D01*
X24319852Y-83323404D01*
X24336879Y-83294995D01*
X24356609Y-83268392D01*
X24378851Y-83243851D01*
X24403392Y-83221609D01*
X24429995Y-83201879D01*
X24458404Y-83184852D01*
X24488344Y-83170691D01*
X24519529Y-83159533D01*
X24551657Y-83151485D01*
X24584419Y-83146625D01*
X24617500Y-83145000D01*
X25392500Y-83145000D01*
X25425581Y-83146625D01*
X25425581Y-83146625D01*
G37*
D13*
X25005000Y-83820000D03*
D21*
X69625000Y-63650000D03*
X70275000Y-63650000D03*
X70925000Y-63650000D03*
X71575000Y-63650000D03*
X72225000Y-63650000D03*
X72875000Y-63650000D03*
X73525000Y-63650000D03*
X74175000Y-63650000D03*
X74825000Y-63650000D03*
X75475000Y-63650000D03*
X76125000Y-63650000D03*
X76775000Y-63650000D03*
X77425000Y-63650000D03*
X78075000Y-63650000D03*
X78725000Y-63650000D03*
X79375000Y-63650000D03*
X79375000Y-56350000D03*
X78725000Y-56350000D03*
X78075000Y-56350000D03*
X77425000Y-56350000D03*
X76775000Y-56350000D03*
X76125000Y-56350000D03*
X75475000Y-56350000D03*
X74825000Y-56350000D03*
X74175000Y-56350000D03*
X73525000Y-56350000D03*
X72875000Y-56350000D03*
X72225000Y-56350000D03*
X71575000Y-56350000D03*
X70925000Y-56350000D03*
X70275000Y-56350000D03*
X69625000Y-56350000D03*
D22*
X74500000Y-60000000D03*
D23*
X23980000Y-93940000D03*
D24*
X17680000Y-93940000D03*
X17680000Y-96240000D03*
X17680000Y-91640000D03*
D12*
G36*
X20345581Y-83146625D02*
X20378343Y-83151485D01*
X20410471Y-83159533D01*
X20441656Y-83170691D01*
X20471596Y-83184852D01*
X20500005Y-83201879D01*
X20526608Y-83221609D01*
X20551149Y-83243851D01*
X20573391Y-83268392D01*
X20593121Y-83294995D01*
X20610148Y-83323404D01*
X20624309Y-83353344D01*
X20635467Y-83384529D01*
X20643515Y-83416657D01*
X20648375Y-83449419D01*
X20650000Y-83482500D01*
X20650000Y-84157500D01*
X20648375Y-84190581D01*
X20643515Y-84223343D01*
X20635467Y-84255471D01*
X20624309Y-84286656D01*
X20610148Y-84316596D01*
X20593121Y-84345005D01*
X20573391Y-84371608D01*
X20551149Y-84396149D01*
X20526608Y-84418391D01*
X20500005Y-84438121D01*
X20471596Y-84455148D01*
X20441656Y-84469309D01*
X20410471Y-84480467D01*
X20378343Y-84488515D01*
X20345581Y-84493375D01*
X20312500Y-84495000D01*
X19537500Y-84495000D01*
X19504419Y-84493375D01*
X19471657Y-84488515D01*
X19439529Y-84480467D01*
X19408344Y-84469309D01*
X19378404Y-84455148D01*
X19349995Y-84438121D01*
X19323392Y-84418391D01*
X19298851Y-84396149D01*
X19276609Y-84371608D01*
X19256879Y-84345005D01*
X19239852Y-84316596D01*
X19225691Y-84286656D01*
X19214533Y-84255471D01*
X19206485Y-84223343D01*
X19201625Y-84190581D01*
X19200000Y-84157500D01*
X19200000Y-83482500D01*
X19201625Y-83449419D01*
X19206485Y-83416657D01*
X19214533Y-83384529D01*
X19225691Y-83353344D01*
X19239852Y-83323404D01*
X19256879Y-83294995D01*
X19276609Y-83268392D01*
X19298851Y-83243851D01*
X19323392Y-83221609D01*
X19349995Y-83201879D01*
X19378404Y-83184852D01*
X19408344Y-83170691D01*
X19439529Y-83159533D01*
X19471657Y-83151485D01*
X19504419Y-83146625D01*
X19537500Y-83145000D01*
X20312500Y-83145000D01*
X20345581Y-83146625D01*
X20345581Y-83146625D01*
G37*
D13*
X19925000Y-83820000D03*
D12*
G36*
X18595581Y-83146625D02*
X18628343Y-83151485D01*
X18660471Y-83159533D01*
X18691656Y-83170691D01*
X18721596Y-83184852D01*
X18750005Y-83201879D01*
X18776608Y-83221609D01*
X18801149Y-83243851D01*
X18823391Y-83268392D01*
X18843121Y-83294995D01*
X18860148Y-83323404D01*
X18874309Y-83353344D01*
X18885467Y-83384529D01*
X18893515Y-83416657D01*
X18898375Y-83449419D01*
X18900000Y-83482500D01*
X18900000Y-84157500D01*
X18898375Y-84190581D01*
X18893515Y-84223343D01*
X18885467Y-84255471D01*
X18874309Y-84286656D01*
X18860148Y-84316596D01*
X18843121Y-84345005D01*
X18823391Y-84371608D01*
X18801149Y-84396149D01*
X18776608Y-84418391D01*
X18750005Y-84438121D01*
X18721596Y-84455148D01*
X18691656Y-84469309D01*
X18660471Y-84480467D01*
X18628343Y-84488515D01*
X18595581Y-84493375D01*
X18562500Y-84495000D01*
X17787500Y-84495000D01*
X17754419Y-84493375D01*
X17721657Y-84488515D01*
X17689529Y-84480467D01*
X17658344Y-84469309D01*
X17628404Y-84455148D01*
X17599995Y-84438121D01*
X17573392Y-84418391D01*
X17548851Y-84396149D01*
X17526609Y-84371608D01*
X17506879Y-84345005D01*
X17489852Y-84316596D01*
X17475691Y-84286656D01*
X17464533Y-84255471D01*
X17456485Y-84223343D01*
X17451625Y-84190581D01*
X17450000Y-84157500D01*
X17450000Y-83482500D01*
X17451625Y-83449419D01*
X17456485Y-83416657D01*
X17464533Y-83384529D01*
X17475691Y-83353344D01*
X17489852Y-83323404D01*
X17506879Y-83294995D01*
X17526609Y-83268392D01*
X17548851Y-83243851D01*
X17573392Y-83221609D01*
X17599995Y-83201879D01*
X17628404Y-83184852D01*
X17658344Y-83170691D01*
X17689529Y-83159533D01*
X17721657Y-83151485D01*
X17754419Y-83146625D01*
X17787500Y-83145000D01*
X18562500Y-83145000D01*
X18595581Y-83146625D01*
X18595581Y-83146625D01*
G37*
D13*
X18175000Y-83820000D03*
D12*
G36*
X18595581Y-102196625D02*
X18628343Y-102201485D01*
X18660471Y-102209533D01*
X18691656Y-102220691D01*
X18721596Y-102234852D01*
X18750005Y-102251879D01*
X18776608Y-102271609D01*
X18801149Y-102293851D01*
X18823391Y-102318392D01*
X18843121Y-102344995D01*
X18860148Y-102373404D01*
X18874309Y-102403344D01*
X18885467Y-102434529D01*
X18893515Y-102466657D01*
X18898375Y-102499419D01*
X18900000Y-102532500D01*
X18900000Y-103207500D01*
X18898375Y-103240581D01*
X18893515Y-103273343D01*
X18885467Y-103305471D01*
X18874309Y-103336656D01*
X18860148Y-103366596D01*
X18843121Y-103395005D01*
X18823391Y-103421608D01*
X18801149Y-103446149D01*
X18776608Y-103468391D01*
X18750005Y-103488121D01*
X18721596Y-103505148D01*
X18691656Y-103519309D01*
X18660471Y-103530467D01*
X18628343Y-103538515D01*
X18595581Y-103543375D01*
X18562500Y-103545000D01*
X17787500Y-103545000D01*
X17754419Y-103543375D01*
X17721657Y-103538515D01*
X17689529Y-103530467D01*
X17658344Y-103519309D01*
X17628404Y-103505148D01*
X17599995Y-103488121D01*
X17573392Y-103468391D01*
X17548851Y-103446149D01*
X17526609Y-103421608D01*
X17506879Y-103395005D01*
X17489852Y-103366596D01*
X17475691Y-103336656D01*
X17464533Y-103305471D01*
X17456485Y-103273343D01*
X17451625Y-103240581D01*
X17450000Y-103207500D01*
X17450000Y-102532500D01*
X17451625Y-102499419D01*
X17456485Y-102466657D01*
X17464533Y-102434529D01*
X17475691Y-102403344D01*
X17489852Y-102373404D01*
X17506879Y-102344995D01*
X17526609Y-102318392D01*
X17548851Y-102293851D01*
X17573392Y-102271609D01*
X17599995Y-102251879D01*
X17628404Y-102234852D01*
X17658344Y-102220691D01*
X17689529Y-102209533D01*
X17721657Y-102201485D01*
X17754419Y-102196625D01*
X17787500Y-102195000D01*
X18562500Y-102195000D01*
X18595581Y-102196625D01*
X18595581Y-102196625D01*
G37*
D13*
X18175000Y-102870000D03*
D12*
G36*
X20345581Y-102196625D02*
X20378343Y-102201485D01*
X20410471Y-102209533D01*
X20441656Y-102220691D01*
X20471596Y-102234852D01*
X20500005Y-102251879D01*
X20526608Y-102271609D01*
X20551149Y-102293851D01*
X20573391Y-102318392D01*
X20593121Y-102344995D01*
X20610148Y-102373404D01*
X20624309Y-102403344D01*
X20635467Y-102434529D01*
X20643515Y-102466657D01*
X20648375Y-102499419D01*
X20650000Y-102532500D01*
X20650000Y-103207500D01*
X20648375Y-103240581D01*
X20643515Y-103273343D01*
X20635467Y-103305471D01*
X20624309Y-103336656D01*
X20610148Y-103366596D01*
X20593121Y-103395005D01*
X20573391Y-103421608D01*
X20551149Y-103446149D01*
X20526608Y-103468391D01*
X20500005Y-103488121D01*
X20471596Y-103505148D01*
X20441656Y-103519309D01*
X20410471Y-103530467D01*
X20378343Y-103538515D01*
X20345581Y-103543375D01*
X20312500Y-103545000D01*
X19537500Y-103545000D01*
X19504419Y-103543375D01*
X19471657Y-103538515D01*
X19439529Y-103530467D01*
X19408344Y-103519309D01*
X19378404Y-103505148D01*
X19349995Y-103488121D01*
X19323392Y-103468391D01*
X19298851Y-103446149D01*
X19276609Y-103421608D01*
X19256879Y-103395005D01*
X19239852Y-103366596D01*
X19225691Y-103336656D01*
X19214533Y-103305471D01*
X19206485Y-103273343D01*
X19201625Y-103240581D01*
X19200000Y-103207500D01*
X19200000Y-102532500D01*
X19201625Y-102499419D01*
X19206485Y-102466657D01*
X19214533Y-102434529D01*
X19225691Y-102403344D01*
X19239852Y-102373404D01*
X19256879Y-102344995D01*
X19276609Y-102318392D01*
X19298851Y-102293851D01*
X19323392Y-102271609D01*
X19349995Y-102251879D01*
X19378404Y-102234852D01*
X19408344Y-102220691D01*
X19439529Y-102209533D01*
X19471657Y-102201485D01*
X19504419Y-102196625D01*
X19537500Y-102195000D01*
X20312500Y-102195000D01*
X20345581Y-102196625D01*
X20345581Y-102196625D01*
G37*
D13*
X19925000Y-102870000D03*
D12*
G36*
X67420581Y-52826625D02*
X67453343Y-52831485D01*
X67485471Y-52839533D01*
X67516656Y-52850691D01*
X67546596Y-52864852D01*
X67575005Y-52881879D01*
X67601608Y-52901609D01*
X67626149Y-52923851D01*
X67648391Y-52948392D01*
X67668121Y-52974995D01*
X67685148Y-53003404D01*
X67699309Y-53033344D01*
X67710467Y-53064529D01*
X67718515Y-53096657D01*
X67723375Y-53129419D01*
X67725000Y-53162500D01*
X67725000Y-53837500D01*
X67723375Y-53870581D01*
X67718515Y-53903343D01*
X67710467Y-53935471D01*
X67699309Y-53966656D01*
X67685148Y-53996596D01*
X67668121Y-54025005D01*
X67648391Y-54051608D01*
X67626149Y-54076149D01*
X67601608Y-54098391D01*
X67575005Y-54118121D01*
X67546596Y-54135148D01*
X67516656Y-54149309D01*
X67485471Y-54160467D01*
X67453343Y-54168515D01*
X67420581Y-54173375D01*
X67387500Y-54175000D01*
X66612500Y-54175000D01*
X66579419Y-54173375D01*
X66546657Y-54168515D01*
X66514529Y-54160467D01*
X66483344Y-54149309D01*
X66453404Y-54135148D01*
X66424995Y-54118121D01*
X66398392Y-54098391D01*
X66373851Y-54076149D01*
X66351609Y-54051608D01*
X66331879Y-54025005D01*
X66314852Y-53996596D01*
X66300691Y-53966656D01*
X66289533Y-53935471D01*
X66281485Y-53903343D01*
X66276625Y-53870581D01*
X66275000Y-53837500D01*
X66275000Y-53162500D01*
X66276625Y-53129419D01*
X66281485Y-53096657D01*
X66289533Y-53064529D01*
X66300691Y-53033344D01*
X66314852Y-53003404D01*
X66331879Y-52974995D01*
X66351609Y-52948392D01*
X66373851Y-52923851D01*
X66398392Y-52901609D01*
X66424995Y-52881879D01*
X66453404Y-52864852D01*
X66483344Y-52850691D01*
X66514529Y-52839533D01*
X66546657Y-52831485D01*
X66579419Y-52826625D01*
X66612500Y-52825000D01*
X67387500Y-52825000D01*
X67420581Y-52826625D01*
X67420581Y-52826625D01*
G37*
D13*
X67000000Y-53500000D03*
D12*
G36*
X69170581Y-52826625D02*
X69203343Y-52831485D01*
X69235471Y-52839533D01*
X69266656Y-52850691D01*
X69296596Y-52864852D01*
X69325005Y-52881879D01*
X69351608Y-52901609D01*
X69376149Y-52923851D01*
X69398391Y-52948392D01*
X69418121Y-52974995D01*
X69435148Y-53003404D01*
X69449309Y-53033344D01*
X69460467Y-53064529D01*
X69468515Y-53096657D01*
X69473375Y-53129419D01*
X69475000Y-53162500D01*
X69475000Y-53837500D01*
X69473375Y-53870581D01*
X69468515Y-53903343D01*
X69460467Y-53935471D01*
X69449309Y-53966656D01*
X69435148Y-53996596D01*
X69418121Y-54025005D01*
X69398391Y-54051608D01*
X69376149Y-54076149D01*
X69351608Y-54098391D01*
X69325005Y-54118121D01*
X69296596Y-54135148D01*
X69266656Y-54149309D01*
X69235471Y-54160467D01*
X69203343Y-54168515D01*
X69170581Y-54173375D01*
X69137500Y-54175000D01*
X68362500Y-54175000D01*
X68329419Y-54173375D01*
X68296657Y-54168515D01*
X68264529Y-54160467D01*
X68233344Y-54149309D01*
X68203404Y-54135148D01*
X68174995Y-54118121D01*
X68148392Y-54098391D01*
X68123851Y-54076149D01*
X68101609Y-54051608D01*
X68081879Y-54025005D01*
X68064852Y-53996596D01*
X68050691Y-53966656D01*
X68039533Y-53935471D01*
X68031485Y-53903343D01*
X68026625Y-53870581D01*
X68025000Y-53837500D01*
X68025000Y-53162500D01*
X68026625Y-53129419D01*
X68031485Y-53096657D01*
X68039533Y-53064529D01*
X68050691Y-53033344D01*
X68064852Y-53003404D01*
X68081879Y-52974995D01*
X68101609Y-52948392D01*
X68123851Y-52923851D01*
X68148392Y-52901609D01*
X68174995Y-52881879D01*
X68203404Y-52864852D01*
X68233344Y-52850691D01*
X68264529Y-52839533D01*
X68296657Y-52831485D01*
X68329419Y-52826625D01*
X68362500Y-52825000D01*
X69137500Y-52825000D01*
X69170581Y-52826625D01*
X69170581Y-52826625D01*
G37*
D13*
X68750000Y-53500000D03*
D12*
G36*
X67370581Y-62151625D02*
X67403343Y-62156485D01*
X67435471Y-62164533D01*
X67466656Y-62175691D01*
X67496596Y-62189852D01*
X67525005Y-62206879D01*
X67551608Y-62226609D01*
X67576149Y-62248851D01*
X67598391Y-62273392D01*
X67618121Y-62299995D01*
X67635148Y-62328404D01*
X67649309Y-62358344D01*
X67660467Y-62389529D01*
X67668515Y-62421657D01*
X67673375Y-62454419D01*
X67675000Y-62487500D01*
X67675000Y-63262500D01*
X67673375Y-63295581D01*
X67668515Y-63328343D01*
X67660467Y-63360471D01*
X67649309Y-63391656D01*
X67635148Y-63421596D01*
X67618121Y-63450005D01*
X67598391Y-63476608D01*
X67576149Y-63501149D01*
X67551608Y-63523391D01*
X67525005Y-63543121D01*
X67496596Y-63560148D01*
X67466656Y-63574309D01*
X67435471Y-63585467D01*
X67403343Y-63593515D01*
X67370581Y-63598375D01*
X67337500Y-63600000D01*
X66662500Y-63600000D01*
X66629419Y-63598375D01*
X66596657Y-63593515D01*
X66564529Y-63585467D01*
X66533344Y-63574309D01*
X66503404Y-63560148D01*
X66474995Y-63543121D01*
X66448392Y-63523391D01*
X66423851Y-63501149D01*
X66401609Y-63476608D01*
X66381879Y-63450005D01*
X66364852Y-63421596D01*
X66350691Y-63391656D01*
X66339533Y-63360471D01*
X66331485Y-63328343D01*
X66326625Y-63295581D01*
X66325000Y-63262500D01*
X66325000Y-62487500D01*
X66326625Y-62454419D01*
X66331485Y-62421657D01*
X66339533Y-62389529D01*
X66350691Y-62358344D01*
X66364852Y-62328404D01*
X66381879Y-62299995D01*
X66401609Y-62273392D01*
X66423851Y-62248851D01*
X66448392Y-62226609D01*
X66474995Y-62206879D01*
X66503404Y-62189852D01*
X66533344Y-62175691D01*
X66564529Y-62164533D01*
X66596657Y-62156485D01*
X66629419Y-62151625D01*
X66662500Y-62150000D01*
X67337500Y-62150000D01*
X67370581Y-62151625D01*
X67370581Y-62151625D01*
G37*
D13*
X67000000Y-62875000D03*
D12*
G36*
X67370581Y-60401625D02*
X67403343Y-60406485D01*
X67435471Y-60414533D01*
X67466656Y-60425691D01*
X67496596Y-60439852D01*
X67525005Y-60456879D01*
X67551608Y-60476609D01*
X67576149Y-60498851D01*
X67598391Y-60523392D01*
X67618121Y-60549995D01*
X67635148Y-60578404D01*
X67649309Y-60608344D01*
X67660467Y-60639529D01*
X67668515Y-60671657D01*
X67673375Y-60704419D01*
X67675000Y-60737500D01*
X67675000Y-61512500D01*
X67673375Y-61545581D01*
X67668515Y-61578343D01*
X67660467Y-61610471D01*
X67649309Y-61641656D01*
X67635148Y-61671596D01*
X67618121Y-61700005D01*
X67598391Y-61726608D01*
X67576149Y-61751149D01*
X67551608Y-61773391D01*
X67525005Y-61793121D01*
X67496596Y-61810148D01*
X67466656Y-61824309D01*
X67435471Y-61835467D01*
X67403343Y-61843515D01*
X67370581Y-61848375D01*
X67337500Y-61850000D01*
X66662500Y-61850000D01*
X66629419Y-61848375D01*
X66596657Y-61843515D01*
X66564529Y-61835467D01*
X66533344Y-61824309D01*
X66503404Y-61810148D01*
X66474995Y-61793121D01*
X66448392Y-61773391D01*
X66423851Y-61751149D01*
X66401609Y-61726608D01*
X66381879Y-61700005D01*
X66364852Y-61671596D01*
X66350691Y-61641656D01*
X66339533Y-61610471D01*
X66331485Y-61578343D01*
X66326625Y-61545581D01*
X66325000Y-61512500D01*
X66325000Y-60737500D01*
X66326625Y-60704419D01*
X66331485Y-60671657D01*
X66339533Y-60639529D01*
X66350691Y-60608344D01*
X66364852Y-60578404D01*
X66381879Y-60549995D01*
X66401609Y-60523392D01*
X66423851Y-60498851D01*
X66448392Y-60476609D01*
X66474995Y-60456879D01*
X66503404Y-60439852D01*
X66533344Y-60425691D01*
X66564529Y-60414533D01*
X66596657Y-60406485D01*
X66629419Y-60401625D01*
X66662500Y-60400000D01*
X67337500Y-60400000D01*
X67370581Y-60401625D01*
X67370581Y-60401625D01*
G37*
D13*
X67000000Y-61125000D03*
D25*
X20905000Y-43605000D03*
X4395000Y-13125000D03*
X33605000Y-13125000D03*
D26*
X2490000Y-34080000D03*
X2490000Y-26460000D03*
X2490000Y-23920000D03*
X13920000Y-15030000D03*
X16460000Y-15030000D03*
X13920000Y-12490000D03*
X16460000Y-12490000D03*
X19000000Y-15030000D03*
X21540000Y-15030000D03*
X24080000Y-15030000D03*
X19000000Y-12490000D03*
X24080000Y-12490000D03*
X5030000Y-34080000D03*
X7570000Y-34080000D03*
X10110000Y-34080000D03*
X12650000Y-34080000D03*
X15190000Y-34080000D03*
X17730000Y-34080000D03*
X20270000Y-34080000D03*
X22810000Y-34080000D03*
X25350000Y-34080000D03*
X27890000Y-34080000D03*
X30430000Y-34080000D03*
X32970000Y-34080000D03*
X35510000Y-34080000D03*
X2490000Y-18840000D03*
X5030000Y-18840000D03*
X7570000Y-18840000D03*
X10110000Y-18840000D03*
X12650000Y-18840000D03*
X15190000Y-18840000D03*
X17730000Y-18840000D03*
X20270000Y-18840000D03*
X22810000Y-18840000D03*
X25350000Y-18840000D03*
X27890000Y-18840000D03*
X30430000Y-18840000D03*
X32970000Y-18840000D03*
X35510000Y-18840000D03*
X27255000Y-44875000D03*
X27255000Y-42335000D03*
X27255000Y-39795000D03*
D27*
X52490000Y-97510000D03*
X51220000Y-100050000D03*
X49950000Y-97510000D03*
X48680000Y-100050000D03*
X47410000Y-97510000D03*
X46140000Y-100050000D03*
X44870000Y-97510000D03*
X43600000Y-100050000D03*
X52490000Y-104110000D03*
X51220000Y-106650000D03*
X49950000Y-104110000D03*
X48680000Y-106650000D03*
X47410000Y-104110000D03*
X46140000Y-106650000D03*
X44870000Y-104110000D03*
X43600000Y-106650000D03*
X66460000Y-97510000D03*
X65190000Y-100050000D03*
X63920000Y-97510000D03*
X62650000Y-100050000D03*
X61380000Y-97510000D03*
X60110000Y-100050000D03*
X58840000Y-97510000D03*
X57570000Y-100050000D03*
X66460000Y-104110000D03*
X65190000Y-106650000D03*
X63920000Y-104110000D03*
X62650000Y-106650000D03*
X61380000Y-104110000D03*
X60110000Y-106650000D03*
X58840000Y-104110000D03*
X57570000Y-106650000D03*
X94400000Y-97510000D03*
X93130000Y-100050000D03*
X91860000Y-97510000D03*
X90590000Y-100050000D03*
X89320000Y-97510000D03*
X88050000Y-100050000D03*
X86780000Y-97510000D03*
X85510000Y-100050000D03*
X94400000Y-104110000D03*
X93130000Y-106650000D03*
X91860000Y-104110000D03*
X90590000Y-106650000D03*
X89320000Y-104110000D03*
X88050000Y-106650000D03*
X86780000Y-104110000D03*
X85510000Y-106650000D03*
X80430000Y-97510000D03*
X79160000Y-100050000D03*
X77890000Y-97510000D03*
X76620000Y-100050000D03*
X75350000Y-97510000D03*
X74080000Y-100050000D03*
X72810000Y-97510000D03*
X71540000Y-100050000D03*
X80430000Y-104110000D03*
X79160000Y-106650000D03*
X77890000Y-104110000D03*
X76620000Y-106650000D03*
X75350000Y-104110000D03*
X74080000Y-106650000D03*
X72810000Y-104110000D03*
X71540000Y-106650000D03*
D28*
X98470000Y-117570000D03*
X97710000Y-107150000D03*
X98470000Y-101570000D03*
X39530000Y-117570000D03*
X40290000Y-103850000D03*
X39530000Y-97500000D03*
D29*
X42330000Y-113000000D03*
X95670000Y-113000000D03*
X103000000Y-33330000D03*
X103000000Y-86670000D03*
D28*
X87500000Y-89470000D03*
X93850000Y-88710000D03*
X107570000Y-89470000D03*
X91570000Y-30530000D03*
X97150000Y-31290000D03*
X107570000Y-30530000D03*
D27*
X96650000Y-57460000D03*
X94110000Y-56190000D03*
X96650000Y-54920000D03*
X94110000Y-53650000D03*
X96650000Y-52380000D03*
X94110000Y-51110000D03*
X96650000Y-49840000D03*
X94110000Y-48570000D03*
X90050000Y-57460000D03*
X87510000Y-56190000D03*
X90050000Y-54920000D03*
X87510000Y-53650000D03*
X90050000Y-52380000D03*
X87510000Y-51110000D03*
X90050000Y-49840000D03*
X87510000Y-48570000D03*
X96650000Y-43490000D03*
X94110000Y-42220000D03*
X96650000Y-40950000D03*
X94110000Y-39680000D03*
X96650000Y-38410000D03*
X94110000Y-37140000D03*
X96650000Y-35870000D03*
X94110000Y-34600000D03*
X90050000Y-43490000D03*
X87510000Y-42220000D03*
X90050000Y-40950000D03*
X87510000Y-39680000D03*
X90050000Y-38410000D03*
X87510000Y-37140000D03*
X90050000Y-35870000D03*
X87510000Y-34600000D03*
X96650000Y-71430000D03*
X94110000Y-70160000D03*
X96650000Y-68890000D03*
X94110000Y-67620000D03*
X96650000Y-66350000D03*
X94110000Y-65080000D03*
X96650000Y-63810000D03*
X94110000Y-62540000D03*
X90050000Y-71430000D03*
X87510000Y-70160000D03*
X90050000Y-68890000D03*
X87510000Y-67620000D03*
X90050000Y-66350000D03*
X87510000Y-65080000D03*
X90050000Y-63810000D03*
X87510000Y-62540000D03*
X96650000Y-85400000D03*
X94110000Y-84130000D03*
X96650000Y-82860000D03*
X94110000Y-81590000D03*
X96650000Y-80320000D03*
X94110000Y-79050000D03*
X96650000Y-77780000D03*
X94110000Y-76510000D03*
X90050000Y-85400000D03*
X87510000Y-84130000D03*
X90050000Y-82860000D03*
X87510000Y-81590000D03*
X90050000Y-80320000D03*
X87510000Y-79050000D03*
X90050000Y-77780000D03*
X87510000Y-76510000D03*
X85510000Y-22490000D03*
X86780000Y-19950000D03*
X88050000Y-22490000D03*
X89320000Y-19950000D03*
X90590000Y-22490000D03*
X91860000Y-19950000D03*
X93130000Y-22490000D03*
X94400000Y-19950000D03*
X85510000Y-15890000D03*
X86780000Y-13350000D03*
X88050000Y-15890000D03*
X89320000Y-13350000D03*
X90590000Y-15890000D03*
X91860000Y-13350000D03*
X93130000Y-15890000D03*
X94400000Y-13350000D03*
X71540000Y-22490000D03*
X72810000Y-19950000D03*
X74080000Y-22490000D03*
X75350000Y-19950000D03*
X76620000Y-22490000D03*
X77890000Y-19950000D03*
X79160000Y-22490000D03*
X80430000Y-19950000D03*
X71540000Y-15890000D03*
X72810000Y-13350000D03*
X74080000Y-15890000D03*
X75350000Y-13350000D03*
X76620000Y-15890000D03*
X77890000Y-13350000D03*
X79160000Y-15890000D03*
X80430000Y-13350000D03*
X43600000Y-22490000D03*
X44870000Y-19950000D03*
X46140000Y-22490000D03*
X47410000Y-19950000D03*
X48680000Y-22490000D03*
X49950000Y-19950000D03*
X51220000Y-22490000D03*
X52490000Y-19950000D03*
X43600000Y-15890000D03*
X44870000Y-13350000D03*
X46140000Y-15890000D03*
X47410000Y-13350000D03*
X48680000Y-15890000D03*
X49950000Y-13350000D03*
X51220000Y-15890000D03*
X52490000Y-13350000D03*
X57570000Y-22490000D03*
X58840000Y-19950000D03*
X60110000Y-22490000D03*
X61380000Y-19950000D03*
X62650000Y-22490000D03*
X63920000Y-19950000D03*
X65190000Y-22490000D03*
X66460000Y-19950000D03*
X57570000Y-15890000D03*
X58840000Y-13350000D03*
X60110000Y-15890000D03*
X61380000Y-13350000D03*
X62650000Y-15890000D03*
X63920000Y-13350000D03*
X65190000Y-15890000D03*
X66460000Y-13350000D03*
D28*
X39530000Y-2430000D03*
X40290000Y-12850000D03*
X39530000Y-18430000D03*
X98470000Y-2430000D03*
X97710000Y-16150000D03*
X98470000Y-22500000D03*
D29*
X95670000Y-7000000D03*
X42330000Y-7000000D03*
D30*
X42151097Y-67620000D03*
X44691097Y-67620000D03*
X47231097Y-67620000D03*
X49771097Y-67620000D03*
X39611097Y-67620000D03*
X37071097Y-67620000D03*
X34531097Y-67620000D03*
X52311097Y-67620000D03*
X54851097Y-67620000D03*
X57391097Y-67620000D03*
X59931097Y-67620000D03*
X47231097Y-65080000D03*
X47231097Y-62540000D03*
X47231097Y-60000000D03*
X47231097Y-57460000D03*
X47231097Y-54920000D03*
X59931097Y-52380000D03*
X57391097Y-52380000D03*
X54851097Y-52380000D03*
X52311097Y-52380000D03*
X49771097Y-52380000D03*
X47231097Y-52380000D03*
X44691097Y-52380000D03*
X42151097Y-52380000D03*
X31991097Y-67620000D03*
X29451097Y-67620000D03*
X26911097Y-67620000D03*
X24371097Y-67620000D03*
X21831097Y-67620000D03*
X19291097Y-67620000D03*
X16751097Y-67620000D03*
X14211097Y-67620000D03*
X11671097Y-67620000D03*
X9131097Y-67620000D03*
X6591097Y-67620000D03*
X4051097Y-67620000D03*
D31*
X1511097Y-67620000D03*
D30*
X39611097Y-52380000D03*
X37071097Y-52380000D03*
X34531097Y-52380000D03*
X31991097Y-52380000D03*
X29451097Y-52380000D03*
X26911097Y-52380000D03*
X24371097Y-52380000D03*
X21831097Y-52380000D03*
X19291097Y-52380000D03*
X16751097Y-52380000D03*
X14211097Y-52380000D03*
X11671097Y-52380000D03*
X9131097Y-52380000D03*
X6591097Y-52380000D03*
X4051097Y-52380000D03*
X1511097Y-52380000D03*
X4051097Y-54920000D03*
X9131097Y-54920000D03*
X11671097Y-54920000D03*
X14211097Y-54920000D03*
X16751097Y-60000000D03*
X19291097Y-60000000D03*
X21831097Y-60000000D03*
X24371097Y-60000000D03*
X39611097Y-60000000D03*
X42151097Y-60000000D03*
X44691097Y-60000000D03*
X49771097Y-60000000D03*
X52311097Y-60000000D03*
X54851097Y-60000000D03*
X57391097Y-60000000D03*
X59931097Y-60000000D03*
X59931097Y-57460000D03*
X57391097Y-57460000D03*
X54851097Y-57460000D03*
X52311097Y-57460000D03*
X49771097Y-57460000D03*
X44691097Y-57460000D03*
X42151097Y-57460000D03*
X39611097Y-57460000D03*
X24371097Y-57460000D03*
X21831097Y-57460000D03*
X19291097Y-57460000D03*
X16751097Y-57460000D03*
X7861097Y-64620000D03*
X10401097Y-64620000D03*
X12941097Y-64620000D03*
X15481097Y-64620000D03*
X18021097Y-64620000D03*
M02*
