G04 #@! TF.GenerationSoftware,KiCad,Pcbnew,(5.0.0-rc2-dev-444-g2974a2c10)*
G04 #@! TF.CreationDate,2018-08-08T23:01:06-07:00*
G04 #@! TF.ProjectId,mcu_board,6D63755F626F6172642E6B696361645F,rev?*
G04 #@! TF.SameCoordinates,Original*
G04 #@! TF.FileFunction,Legend,Top*
G04 #@! TF.FilePolarity,Positive*
%FSLAX46Y46*%
G04 Gerber Fmt 4.6, Leading zero omitted, Abs format (unit mm)*
G04 Created by KiCad (PCBNEW (5.0.0-rc2-dev-444-g2974a2c10)) date 08/08/18 23:01:06*
%MOMM*%
%LPD*%
G01*
G04 APERTURE LIST*
%ADD10C,0.300000*%
%ADD11C,0.250000*%
%ADD12C,0.120000*%
%ADD13C,0.150000*%
%ADD14C,0.127000*%
%ADD15C,0.200000*%
%ADD16C,0.050000*%
G04 APERTURE END LIST*
D10*
X9610000Y-3137142D02*
X9824285Y-3208571D01*
X10181428Y-3208571D01*
X10324285Y-3137142D01*
X10395714Y-3065714D01*
X10467142Y-2922857D01*
X10467142Y-2780000D01*
X10395714Y-2637142D01*
X10324285Y-2565714D01*
X10181428Y-2494285D01*
X9895714Y-2422857D01*
X9752857Y-2351428D01*
X9681428Y-2280000D01*
X9610000Y-2137142D01*
X9610000Y-1994285D01*
X9681428Y-1851428D01*
X9752857Y-1780000D01*
X9895714Y-1708571D01*
X10252857Y-1708571D01*
X10467142Y-1780000D01*
X11110000Y-3208571D02*
X11110000Y-1708571D01*
X11681428Y-1708571D01*
X11824285Y-1780000D01*
X11895714Y-1851428D01*
X11967142Y-1994285D01*
X11967142Y-2208571D01*
X11895714Y-2351428D01*
X11824285Y-2422857D01*
X11681428Y-2494285D01*
X11110000Y-2494285D01*
X12610000Y-3208571D02*
X12610000Y-1708571D01*
X12610000Y-2422857D02*
X13467142Y-2422857D01*
X13467142Y-3208571D02*
X13467142Y-1708571D01*
X14181428Y-3208571D02*
X14181428Y-1708571D01*
X14895714Y-3208571D02*
X14895714Y-1708571D01*
X15752857Y-3208571D01*
X15752857Y-1708571D01*
X16324285Y-1708571D02*
X17324285Y-3208571D01*
X17324285Y-1708571D02*
X16324285Y-3208571D01*
X19038571Y-2637142D02*
X20181428Y-2637142D01*
X22538571Y-2422857D02*
X22752857Y-2494285D01*
X22824285Y-2565714D01*
X22895714Y-2708571D01*
X22895714Y-2922857D01*
X22824285Y-3065714D01*
X22752857Y-3137142D01*
X22610000Y-3208571D01*
X22038571Y-3208571D01*
X22038571Y-1708571D01*
X22538571Y-1708571D01*
X22681428Y-1780000D01*
X22752857Y-1851428D01*
X22824285Y-1994285D01*
X22824285Y-2137142D01*
X22752857Y-2280000D01*
X22681428Y-2351428D01*
X22538571Y-2422857D01*
X22038571Y-2422857D01*
X23538571Y-1708571D02*
X23538571Y-2922857D01*
X23610000Y-3065714D01*
X23681428Y-3137142D01*
X23824285Y-3208571D01*
X24110000Y-3208571D01*
X24252857Y-3137142D01*
X24324285Y-3065714D01*
X24395714Y-2922857D01*
X24395714Y-1708571D01*
X25967142Y-3208571D02*
X25467142Y-2494285D01*
X25109999Y-3208571D02*
X25109999Y-1708571D01*
X25681428Y-1708571D01*
X25824285Y-1780000D01*
X25895714Y-1851428D01*
X25967142Y-1994285D01*
X25967142Y-2208571D01*
X25895714Y-2351428D01*
X25824285Y-2422857D01*
X25681428Y-2494285D01*
X25109999Y-2494285D01*
X26610000Y-3208571D02*
X26610000Y-1708571D01*
X27467142Y-3208571D01*
X27467142Y-1708571D01*
X28181428Y-3208571D02*
X28181428Y-1708571D01*
X28681428Y-2780000D01*
X29181428Y-1708571D01*
X29181428Y-3208571D01*
X29824285Y-2780000D02*
X30538571Y-2780000D01*
X29681428Y-3208571D02*
X30181428Y-1708571D01*
X30681428Y-3208571D01*
X31181428Y-3208571D02*
X31181428Y-1708571D01*
X32038571Y-3208571D01*
X32038571Y-1708571D01*
X33538571Y-3208571D02*
X32681428Y-3208571D01*
X33109999Y-3208571D02*
X33109999Y-1708571D01*
X32967142Y-1922857D01*
X32824285Y-2065714D01*
X32681428Y-2137142D01*
X34395714Y-2351428D02*
X34252857Y-2280000D01*
X34181428Y-2208571D01*
X34110000Y-2065714D01*
X34110000Y-1994285D01*
X34181428Y-1851428D01*
X34252857Y-1780000D01*
X34395714Y-1708571D01*
X34681428Y-1708571D01*
X34824285Y-1780000D01*
X34895714Y-1851428D01*
X34967142Y-1994285D01*
X34967142Y-2065714D01*
X34895714Y-2208571D01*
X34824285Y-2280000D01*
X34681428Y-2351428D01*
X34395714Y-2351428D01*
X34252857Y-2422857D01*
X34181428Y-2494285D01*
X34110000Y-2637142D01*
X34110000Y-2922857D01*
X34181428Y-3065714D01*
X34252857Y-3137142D01*
X34395714Y-3208571D01*
X34681428Y-3208571D01*
X34824285Y-3137142D01*
X34895714Y-3065714D01*
X34967142Y-2922857D01*
X34967142Y-2637142D01*
X34895714Y-2494285D01*
X34824285Y-2422857D01*
X34681428Y-2351428D01*
X19074285Y-5187142D02*
X20217142Y-5187142D01*
X21431428Y-4972857D02*
X20931428Y-4972857D01*
X20931428Y-5758571D02*
X20931428Y-4258571D01*
X21645714Y-4258571D01*
X22217142Y-5758571D02*
X22217142Y-4258571D01*
X22717142Y-4258571D02*
X23574285Y-4258571D01*
X23145714Y-5758571D02*
X23145714Y-4258571D01*
X23931428Y-4258571D02*
X24931428Y-4258571D01*
X23931428Y-5758571D01*
X24931428Y-5758571D01*
X25502857Y-5187142D02*
X26645714Y-5187142D01*
X17431428Y-6951428D02*
X17502857Y-6880000D01*
X17645714Y-6808571D01*
X18002857Y-6808571D01*
X18145714Y-6880000D01*
X18217142Y-6951428D01*
X18288571Y-7094285D01*
X18288571Y-7237142D01*
X18217142Y-7451428D01*
X17359999Y-8308571D01*
X18288571Y-8308571D01*
X19217142Y-6808571D02*
X19359999Y-6808571D01*
X19502857Y-6880000D01*
X19574285Y-6951428D01*
X19645714Y-7094285D01*
X19717142Y-7380000D01*
X19717142Y-7737142D01*
X19645714Y-8022857D01*
X19574285Y-8165714D01*
X19502857Y-8237142D01*
X19359999Y-8308571D01*
X19217142Y-8308571D01*
X19074285Y-8237142D01*
X19002857Y-8165714D01*
X18931428Y-8022857D01*
X18859999Y-7737142D01*
X18859999Y-7380000D01*
X18931428Y-7094285D01*
X19002857Y-6951428D01*
X19074285Y-6880000D01*
X19217142Y-6808571D01*
X21145714Y-8308571D02*
X20288571Y-8308571D01*
X20717142Y-8308571D02*
X20717142Y-6808571D01*
X20574285Y-7022857D01*
X20431428Y-7165714D01*
X20288571Y-7237142D01*
X22002857Y-7451428D02*
X21859999Y-7380000D01*
X21788571Y-7308571D01*
X21717142Y-7165714D01*
X21717142Y-7094285D01*
X21788571Y-6951428D01*
X21859999Y-6880000D01*
X22002857Y-6808571D01*
X22288571Y-6808571D01*
X22431428Y-6880000D01*
X22502857Y-6951428D01*
X22574285Y-7094285D01*
X22574285Y-7165714D01*
X22502857Y-7308571D01*
X22431428Y-7380000D01*
X22288571Y-7451428D01*
X22002857Y-7451428D01*
X21859999Y-7522857D01*
X21788571Y-7594285D01*
X21717142Y-7737142D01*
X21717142Y-8022857D01*
X21788571Y-8165714D01*
X21859999Y-8237142D01*
X22002857Y-8308571D01*
X22288571Y-8308571D01*
X22431428Y-8237142D01*
X22502857Y-8165714D01*
X22574285Y-8022857D01*
X22574285Y-7737142D01*
X22502857Y-7594285D01*
X22431428Y-7522857D01*
X22288571Y-7451428D01*
X23502857Y-6808571D02*
X23645714Y-6808571D01*
X23788571Y-6880000D01*
X23859999Y-6951428D01*
X23931428Y-7094285D01*
X24002857Y-7380000D01*
X24002857Y-7737142D01*
X23931428Y-8022857D01*
X23859999Y-8165714D01*
X23788571Y-8237142D01*
X23645714Y-8308571D01*
X23502857Y-8308571D01*
X23359999Y-8237142D01*
X23288571Y-8165714D01*
X23217142Y-8022857D01*
X23145714Y-7737142D01*
X23145714Y-7380000D01*
X23217142Y-7094285D01*
X23288571Y-6951428D01*
X23359999Y-6880000D01*
X23502857Y-6808571D01*
X24859999Y-7451428D02*
X24717142Y-7380000D01*
X24645714Y-7308571D01*
X24574285Y-7165714D01*
X24574285Y-7094285D01*
X24645714Y-6951428D01*
X24717142Y-6880000D01*
X24859999Y-6808571D01*
X25145714Y-6808571D01*
X25288571Y-6880000D01*
X25359999Y-6951428D01*
X25431428Y-7094285D01*
X25431428Y-7165714D01*
X25359999Y-7308571D01*
X25288571Y-7380000D01*
X25145714Y-7451428D01*
X24859999Y-7451428D01*
X24717142Y-7522857D01*
X24645714Y-7594285D01*
X24574285Y-7737142D01*
X24574285Y-8022857D01*
X24645714Y-8165714D01*
X24717142Y-8237142D01*
X24859999Y-8308571D01*
X25145714Y-8308571D01*
X25288571Y-8237142D01*
X25359999Y-8165714D01*
X25431428Y-8022857D01*
X25431428Y-7737142D01*
X25359999Y-7594285D01*
X25288571Y-7522857D01*
X25145714Y-7451428D01*
X26360000Y-6808571D02*
X26502857Y-6808571D01*
X26645714Y-6880000D01*
X26717142Y-6951428D01*
X26788571Y-7094285D01*
X26859999Y-7380000D01*
X26859999Y-7737142D01*
X26788571Y-8022857D01*
X26717142Y-8165714D01*
X26645714Y-8237142D01*
X26502857Y-8308571D01*
X26360000Y-8308571D01*
X26217142Y-8237142D01*
X26145714Y-8165714D01*
X26074285Y-8022857D01*
X26002857Y-7737142D01*
X26002857Y-7380000D01*
X26074285Y-7094285D01*
X26145714Y-6951428D01*
X26217142Y-6880000D01*
X26360000Y-6808571D01*
X27717142Y-7451428D02*
X27574285Y-7380000D01*
X27502857Y-7308571D01*
X27431428Y-7165714D01*
X27431428Y-7094285D01*
X27502857Y-6951428D01*
X27574285Y-6880000D01*
X27717142Y-6808571D01*
X28002857Y-6808571D01*
X28145714Y-6880000D01*
X28217142Y-6951428D01*
X28288571Y-7094285D01*
X28288571Y-7165714D01*
X28217142Y-7308571D01*
X28145714Y-7380000D01*
X28002857Y-7451428D01*
X27717142Y-7451428D01*
X27574285Y-7522857D01*
X27502857Y-7594285D01*
X27431428Y-7737142D01*
X27431428Y-8022857D01*
X27502857Y-8165714D01*
X27574285Y-8237142D01*
X27717142Y-8308571D01*
X28002857Y-8308571D01*
X28145714Y-8237142D01*
X28217142Y-8165714D01*
X28288571Y-8022857D01*
X28288571Y-7737142D01*
X28217142Y-7594285D01*
X28145714Y-7522857D01*
X28002857Y-7451428D01*
D11*
X3048095Y-83320000D02*
X2952857Y-83272380D01*
X2810000Y-83272380D01*
X2667142Y-83320000D01*
X2571904Y-83415238D01*
X2524285Y-83510476D01*
X2476666Y-83700952D01*
X2476666Y-83843809D01*
X2524285Y-84034285D01*
X2571904Y-84129523D01*
X2667142Y-84224761D01*
X2810000Y-84272380D01*
X2905238Y-84272380D01*
X3048095Y-84224761D01*
X3095714Y-84177142D01*
X3095714Y-83843809D01*
X2905238Y-83843809D01*
X3524285Y-84272380D02*
X3524285Y-83272380D01*
X4095714Y-84272380D01*
X4095714Y-83272380D01*
X4571904Y-84272380D02*
X4571904Y-83272380D01*
X4810000Y-83272380D01*
X4952857Y-83320000D01*
X5048095Y-83415238D01*
X5095714Y-83510476D01*
X5143333Y-83700952D01*
X5143333Y-83843809D01*
X5095714Y-84034285D01*
X5048095Y-84129523D01*
X4952857Y-84224761D01*
X4810000Y-84272380D01*
X4571904Y-84272380D01*
X14422380Y-88249047D02*
X14422380Y-88820476D01*
X14422380Y-88534761D02*
X13422380Y-88534761D01*
X13565238Y-88630000D01*
X13660476Y-88725238D01*
X13708095Y-88820476D01*
X13517619Y-87868095D02*
X13470000Y-87820476D01*
X13422380Y-87725238D01*
X13422380Y-87487142D01*
X13470000Y-87391904D01*
X13517619Y-87344285D01*
X13612857Y-87296666D01*
X13708095Y-87296666D01*
X13850952Y-87344285D01*
X14422380Y-87915714D01*
X14422380Y-87296666D01*
X13422380Y-87010952D02*
X14422380Y-86677619D01*
X13422380Y-86344285D01*
X8270952Y-107132380D02*
X7699523Y-107132380D01*
X7985238Y-107132380D02*
X7985238Y-106132380D01*
X7890000Y-106275238D01*
X7794761Y-106370476D01*
X7699523Y-106418095D01*
X8651904Y-106227619D02*
X8699523Y-106180000D01*
X8794761Y-106132380D01*
X9032857Y-106132380D01*
X9128095Y-106180000D01*
X9175714Y-106227619D01*
X9223333Y-106322857D01*
X9223333Y-106418095D01*
X9175714Y-106560952D01*
X8604285Y-107132380D01*
X9223333Y-107132380D01*
X9509047Y-106132380D02*
X9842380Y-107132380D01*
X10175714Y-106132380D01*
X7413809Y-100734761D02*
X7556666Y-100782380D01*
X7794761Y-100782380D01*
X7890000Y-100734761D01*
X7937619Y-100687142D01*
X7985238Y-100591904D01*
X7985238Y-100496666D01*
X7937619Y-100401428D01*
X7890000Y-100353809D01*
X7794761Y-100306190D01*
X7604285Y-100258571D01*
X7509047Y-100210952D01*
X7461428Y-100163333D01*
X7413809Y-100068095D01*
X7413809Y-99972857D01*
X7461428Y-99877619D01*
X7509047Y-99830000D01*
X7604285Y-99782380D01*
X7842380Y-99782380D01*
X7985238Y-99830000D01*
X8318571Y-99782380D02*
X8556666Y-100782380D01*
X8747142Y-100068095D01*
X8937619Y-100782380D01*
X9175714Y-99782380D01*
X9556666Y-100401428D02*
X10318571Y-100401428D01*
X7413809Y-98194761D02*
X7556666Y-98242380D01*
X7794761Y-98242380D01*
X7890000Y-98194761D01*
X7937619Y-98147142D01*
X7985238Y-98051904D01*
X7985238Y-97956666D01*
X7937619Y-97861428D01*
X7890000Y-97813809D01*
X7794761Y-97766190D01*
X7604285Y-97718571D01*
X7509047Y-97670952D01*
X7461428Y-97623333D01*
X7413809Y-97528095D01*
X7413809Y-97432857D01*
X7461428Y-97337619D01*
X7509047Y-97290000D01*
X7604285Y-97242380D01*
X7842380Y-97242380D01*
X7985238Y-97290000D01*
X8318571Y-97242380D02*
X8556666Y-98242380D01*
X8747142Y-97528095D01*
X8937619Y-98242380D01*
X9175714Y-97242380D01*
X9556666Y-97861428D02*
X10318571Y-97861428D01*
X9937619Y-98242380D02*
X9937619Y-97480476D01*
D12*
X6790000Y-95830000D02*
X2770000Y-95830000D01*
X2770000Y-95830000D02*
X2770000Y-108550000D01*
X2770000Y-108550000D02*
X6790000Y-108550000D01*
X6790000Y-108550000D02*
X6790000Y-95830000D01*
X5080000Y-95830000D02*
X5080000Y-96330000D01*
X5080000Y-96330000D02*
X6290000Y-96330000D01*
X6290000Y-96330000D02*
X6290000Y-108050000D01*
X6290000Y-108050000D02*
X5080000Y-108050000D01*
X5080000Y-108050000D02*
X5080000Y-108550000D01*
X4270000Y-95830000D02*
X4270000Y-96830000D01*
X4270000Y-96830000D02*
X2770000Y-96830000D01*
X4270000Y-108550000D02*
X4270000Y-107550000D01*
X4270000Y-107550000D02*
X2770000Y-107550000D01*
X4970000Y-95530000D02*
X2470000Y-95530000D01*
X2470000Y-95530000D02*
X2470000Y-98030000D01*
X10331267Y-104030000D02*
X9988733Y-104030000D01*
X10331267Y-103010000D02*
X9988733Y-103010000D01*
X50771097Y-64973964D02*
G75*
G02X50071097Y-65673964I-700000J0D01*
G01*
X49471097Y-65673964D02*
G75*
G02X48771097Y-64973964I0J700000D01*
G01*
X48771097Y-63573964D02*
G75*
G02X49471097Y-62873964I700000J0D01*
G01*
X50071097Y-62873964D02*
G75*
G02X50771097Y-63573964I0J-700000D01*
G01*
X49471097Y-62873964D02*
X50071097Y-62873964D01*
X48771097Y-64973964D02*
X48771097Y-63573964D01*
X50071097Y-65673964D02*
X49471097Y-65673964D01*
X50771097Y-63573964D02*
X50771097Y-64973964D01*
X67510000Y-56828733D02*
X67510000Y-57171267D01*
X66490000Y-56828733D02*
X66490000Y-57171267D01*
X22192064Y-100960000D02*
X20987936Y-100960000D01*
X22192064Y-99140000D02*
X20987936Y-99140000D01*
X20987936Y-88540000D02*
X22192064Y-88540000D01*
X20987936Y-86720000D02*
X22192064Y-86720000D01*
X44023161Y-55643964D02*
X42819033Y-55643964D01*
X44023161Y-53823964D02*
X42819033Y-53823964D01*
X11260000Y-83260000D02*
X11260000Y-82210000D01*
X10210000Y-82210000D02*
X11260000Y-82210000D01*
X5160000Y-91610000D02*
X-3640000Y-91610000D01*
X-3640000Y-91610000D02*
X-3640000Y-82410000D01*
X11060000Y-88910000D02*
X11060000Y-91610000D01*
X11060000Y-91610000D02*
X9160000Y-91610000D01*
X-3640000Y-82410000D02*
X11060000Y-82410000D01*
X11060000Y-82410000D02*
X11060000Y-85010000D01*
X33620000Y-116070000D02*
X33620000Y-109130000D01*
X33620000Y-109130000D02*
X17420000Y-109130000D01*
X17420000Y-109130000D02*
X17420000Y-116070000D01*
X17420000Y-116070000D02*
X33620000Y-116070000D01*
X26270000Y-112600000D02*
X24770000Y-112600000D01*
X23920000Y-110600000D02*
X27120000Y-110600000D01*
X27120000Y-114600000D02*
X23920000Y-114600000D01*
X66200000Y-50000000D02*
G75*
G02X66900000Y-50700000I0J-700000D01*
G01*
X66900000Y-51300000D02*
G75*
G02X66200000Y-52000000I-700000J0D01*
G01*
X64800000Y-52000000D02*
G75*
G02X64100000Y-51300000I0J700000D01*
G01*
X64100000Y-50700000D02*
G75*
G02X64800000Y-50000000I700000J0D01*
G01*
X64100000Y-51300000D02*
X64100000Y-50700000D01*
X66200000Y-52000000D02*
X64800000Y-52000000D01*
X66900000Y-50700000D02*
X66900000Y-51300000D01*
X64800000Y-50000000D02*
X66200000Y-50000000D01*
X64800000Y-69500000D02*
X66200000Y-69500000D01*
X66900000Y-70200000D02*
X66900000Y-70800000D01*
X66200000Y-71500000D02*
X64800000Y-71500000D01*
X64100000Y-70800000D02*
X64100000Y-70200000D01*
X64100000Y-70200000D02*
G75*
G02X64800000Y-69500000I700000J0D01*
G01*
X64800000Y-71500000D02*
G75*
G02X64100000Y-70800000I0J700000D01*
G01*
X66900000Y-70800000D02*
G75*
G02X66200000Y-71500000I-700000J0D01*
G01*
X66200000Y-69500000D02*
G75*
G02X66900000Y-70200000I0J-700000D01*
G01*
X66200000Y-64500000D02*
G75*
G02X66900000Y-65200000I0J-700000D01*
G01*
X66900000Y-65800000D02*
G75*
G02X66200000Y-66500000I-700000J0D01*
G01*
X64800000Y-66500000D02*
G75*
G02X64100000Y-65800000I0J700000D01*
G01*
X64100000Y-65200000D02*
G75*
G02X64800000Y-64500000I700000J0D01*
G01*
X64100000Y-65800000D02*
X64100000Y-65200000D01*
X66200000Y-66500000D02*
X64800000Y-66500000D01*
X66900000Y-65200000D02*
X66900000Y-65800000D01*
X64800000Y-64500000D02*
X66200000Y-64500000D01*
X64800000Y-47500000D02*
X66200000Y-47500000D01*
X66900000Y-48200000D02*
X66900000Y-48800000D01*
X66200000Y-49500000D02*
X64800000Y-49500000D01*
X64100000Y-48800000D02*
X64100000Y-48200000D01*
X64100000Y-48200000D02*
G75*
G02X64800000Y-47500000I700000J0D01*
G01*
X64800000Y-49500000D02*
G75*
G02X64100000Y-48800000I0J700000D01*
G01*
X66900000Y-48800000D02*
G75*
G02X66200000Y-49500000I-700000J0D01*
G01*
X66200000Y-47500000D02*
G75*
G02X66900000Y-48200000I0J-700000D01*
G01*
X66200000Y-67000000D02*
G75*
G02X66900000Y-67700000I0J-700000D01*
G01*
X66900000Y-68300000D02*
G75*
G02X66200000Y-69000000I-700000J0D01*
G01*
X64800000Y-69000000D02*
G75*
G02X64100000Y-68300000I0J700000D01*
G01*
X64100000Y-67700000D02*
G75*
G02X64800000Y-67000000I700000J0D01*
G01*
X64100000Y-68300000D02*
X64100000Y-67700000D01*
X66200000Y-69000000D02*
X64800000Y-69000000D01*
X66900000Y-67700000D02*
X66900000Y-68300000D01*
X64800000Y-67000000D02*
X66200000Y-67000000D01*
X22470000Y-103605000D02*
X24930000Y-103605000D01*
X22470000Y-102135000D02*
X22470000Y-103605000D01*
X24930000Y-102135000D02*
X22470000Y-102135000D01*
X24930000Y-83085000D02*
X22470000Y-83085000D01*
X22470000Y-83085000D02*
X22470000Y-84555000D01*
X22470000Y-84555000D02*
X24930000Y-84555000D01*
D13*
X69100000Y-64250000D02*
X69100000Y-63175000D01*
X69100000Y-63175000D02*
X68875000Y-63175000D01*
X68875000Y-63175000D02*
X68875000Y-56825000D01*
X68875000Y-56825000D02*
X69200000Y-56825000D01*
X79800000Y-63175000D02*
X80125000Y-63175000D01*
X80125000Y-63175000D02*
X80125000Y-56825000D01*
X80125000Y-56825000D02*
X79800000Y-56825000D01*
D12*
X22740000Y-97350000D02*
X22740000Y-96090000D01*
X22740000Y-90530000D02*
X22740000Y-91790000D01*
X18980000Y-97350000D02*
X22740000Y-97350000D01*
X16730000Y-90530000D02*
X22740000Y-90530000D01*
X18878733Y-84330000D02*
X19221267Y-84330000D01*
X18878733Y-83310000D02*
X19221267Y-83310000D01*
X18878733Y-102360000D02*
X19221267Y-102360000D01*
X18878733Y-103380000D02*
X19221267Y-103380000D01*
X67703733Y-52990000D02*
X68046267Y-52990000D01*
X67703733Y-54010000D02*
X68046267Y-54010000D01*
X66490000Y-62171267D02*
X66490000Y-61828733D01*
X67510000Y-62171267D02*
X67510000Y-61828733D01*
D14*
X1220000Y-46780000D02*
X36780000Y-46780000D01*
X1220000Y-9950000D02*
X36780000Y-9950000D01*
X36780000Y-9950000D02*
X36780000Y-46780000D01*
X1601000Y-41700000D02*
X16601000Y-41700000D01*
D15*
X39410000Y-95450000D02*
X98590000Y-95450000D01*
X98590000Y-123800000D02*
X39410000Y-123800000D01*
X39410000Y-123800000D02*
X39410000Y-119200000D01*
X98590000Y-123800000D02*
X98590000Y-119200000D01*
X98590000Y-95450000D02*
X98590000Y-100000000D01*
X39410000Y-95450000D02*
X39410000Y-96000000D01*
X85450000Y-89590000D02*
X86000000Y-89590000D01*
X85450000Y-30410000D02*
X90000000Y-30410000D01*
X113800000Y-30410000D02*
X109200000Y-30410000D01*
X113800000Y-89590000D02*
X109200000Y-89590000D01*
X113800000Y-30410000D02*
X113800000Y-89590000D01*
X85450000Y-89590000D02*
X85450000Y-30410000D01*
X98590000Y-24550000D02*
X39410000Y-24550000D01*
X39410000Y3800000D02*
X98590000Y3800000D01*
X98590000Y3800000D02*
X98590000Y-800000D01*
X39410000Y3800000D02*
X39410000Y-800000D01*
X39410000Y-24550000D02*
X39410000Y-20000000D01*
X98590000Y-24550000D02*
X98590000Y-24000000D01*
D13*
X16751097Y-56190000D02*
X16751097Y-58730000D01*
X16751097Y-58730000D02*
X19291097Y-58730000D01*
X19291097Y-58730000D02*
X19291097Y-56190000D01*
X19291097Y-56190000D02*
X16751097Y-56190000D01*
X24371097Y-65080000D02*
X20561097Y-65080000D01*
X20561097Y-65080000D02*
X20561097Y-62540000D01*
X20561097Y-62540000D02*
X24371097Y-62540000D01*
X24371097Y-62540000D02*
X24371097Y-65080000D01*
X38341097Y-66350000D02*
X38341097Y-53650000D01*
X25641097Y-53650000D02*
X25641097Y-66350000D01*
X25641097Y-66350000D02*
X38341097Y-66350000D01*
X25641097Y-53650000D02*
X38341097Y-53650000D01*
X59931097Y-65080000D02*
X61201097Y-65080000D01*
X59931097Y-63810000D02*
X61201097Y-63810000D01*
X59931097Y-62540000D02*
X61201097Y-62540000D01*
X59931097Y-61270000D02*
X61201097Y-61270000D01*
X59931097Y-60000000D02*
X61201097Y-60000000D01*
X59931097Y-58730000D02*
X61201097Y-58730000D01*
X59931097Y-57460000D02*
X61201097Y-57460000D01*
X59931097Y-56190000D02*
X61201097Y-56190000D01*
X59931097Y-54920000D02*
X61201097Y-54920000D01*
X61201097Y-66350000D02*
X59931097Y-65080000D01*
X59931097Y-65080000D02*
X59931097Y-54920000D01*
X59931097Y-54920000D02*
X61201097Y-53650000D01*
X61201097Y-53650000D02*
X48501097Y-53650000D01*
X48501097Y-53650000D02*
X48501097Y-66350000D01*
X48501097Y-66350000D02*
X61201097Y-66350000D01*
X61201097Y-51110000D02*
X241097Y-51110000D01*
X241097Y-68890000D02*
X61201097Y-68890000D01*
X241097Y-63810000D02*
X-1028903Y-63810000D01*
X-1028903Y-63810000D02*
X-1028903Y-56190000D01*
X-1028903Y-56190000D02*
X241097Y-56190000D01*
X5321097Y-63810000D02*
X5321097Y-56190000D01*
X5321097Y-56190000D02*
X241097Y-56190000D01*
X5321097Y-63810000D02*
X241097Y-63810000D01*
X44691097Y-57460000D02*
X44691097Y-62540000D01*
X44691097Y-62540000D02*
X42151097Y-62540000D01*
X42151097Y-62540000D02*
X42151097Y-57460000D01*
X42151097Y-57460000D02*
X44691097Y-57460000D01*
X61201097Y-51110000D02*
X61201097Y-68890000D01*
X241097Y-68890000D02*
X241097Y-51110000D01*
X1674761Y-100393333D02*
X1722380Y-100250476D01*
X1722380Y-100012380D01*
X1674761Y-99917142D01*
X1627142Y-99869523D01*
X1531904Y-99821904D01*
X1436666Y-99821904D01*
X1341428Y-99869523D01*
X1293809Y-99917142D01*
X1246190Y-100012380D01*
X1198571Y-100202857D01*
X1150952Y-100298095D01*
X1103333Y-100345714D01*
X1008095Y-100393333D01*
X912857Y-100393333D01*
X817619Y-100345714D01*
X770000Y-100298095D01*
X722380Y-100202857D01*
X722380Y-99964761D01*
X770000Y-99821904D01*
X722380Y-99488571D02*
X1722380Y-99250476D01*
X1008095Y-99060000D01*
X1722380Y-98869523D01*
X722380Y-98631428D01*
X1722380Y-97726666D02*
X1722380Y-98298095D01*
X1722380Y-98012380D02*
X722380Y-98012380D01*
X865238Y-98107619D01*
X960476Y-98202857D01*
X1008095Y-98298095D01*
X9517142Y-105402380D02*
X9183809Y-104926190D01*
X8945714Y-105402380D02*
X8945714Y-104402380D01*
X9326666Y-104402380D01*
X9421904Y-104450000D01*
X9469523Y-104497619D01*
X9517142Y-104592857D01*
X9517142Y-104735714D01*
X9469523Y-104830952D01*
X9421904Y-104878571D01*
X9326666Y-104926190D01*
X8945714Y-104926190D01*
X9850476Y-104402380D02*
X10517142Y-104402380D01*
X10088571Y-105402380D01*
X10802857Y-104402380D02*
X11469523Y-104402380D01*
X11040952Y-105402380D01*
X103690476Y-110152380D02*
X103690476Y-109152380D01*
X104023809Y-109866666D01*
X104357142Y-109152380D01*
X104357142Y-110152380D01*
X104833333Y-110152380D02*
X104833333Y-109152380D01*
X105404761Y-110152380D02*
X104976190Y-109580952D01*
X105404761Y-109152380D02*
X104833333Y-109723809D01*
X105785714Y-109247619D02*
X105833333Y-109200000D01*
X105928571Y-109152380D01*
X106166666Y-109152380D01*
X106261904Y-109200000D01*
X106309523Y-109247619D01*
X106357142Y-109342857D01*
X106357142Y-109438095D01*
X106309523Y-109580952D01*
X105738095Y-110152380D01*
X106357142Y-110152380D01*
X3690476Y-152380D02*
X3690476Y847619D01*
X4023809Y133333D01*
X4357142Y847619D01*
X4357142Y-152380D01*
X4833333Y-152380D02*
X4833333Y847619D01*
X5404761Y-152380D02*
X4976190Y419047D01*
X5404761Y847619D02*
X4833333Y276190D01*
X6261904Y514285D02*
X6261904Y-152380D01*
X6023809Y895238D02*
X5785714Y180952D01*
X6404761Y180952D01*
X3690476Y-110152380D02*
X3690476Y-109152380D01*
X4023809Y-109866666D01*
X4357142Y-109152380D01*
X4357142Y-110152380D01*
X4833333Y-110152380D02*
X4833333Y-109152380D01*
X5404761Y-110152380D02*
X4976190Y-109580952D01*
X5404761Y-109152380D02*
X4833333Y-109723809D01*
X6357142Y-110152380D02*
X5785714Y-110152380D01*
X6071428Y-110152380D02*
X6071428Y-109152380D01*
X5976190Y-109295238D01*
X5880952Y-109390476D01*
X5785714Y-109438095D01*
X103690476Y-152380D02*
X103690476Y847619D01*
X104023809Y133333D01*
X104357142Y847619D01*
X104357142Y-152380D01*
X104833333Y-152380D02*
X104833333Y847619D01*
X105404761Y-152380D02*
X104976190Y419047D01*
X105404761Y847619D02*
X104833333Y276190D01*
X105738095Y847619D02*
X106357142Y847619D01*
X106023809Y466666D01*
X106166666Y466666D01*
X106261904Y419047D01*
X106309523Y371428D01*
X106357142Y276190D01*
X106357142Y38095D01*
X106309523Y-57142D01*
X106261904Y-104761D01*
X106166666Y-152380D01*
X105880952Y-152380D01*
X105785714Y-104761D01*
X105738095Y-57142D01*
X51023477Y-65583487D02*
X51737763Y-65583487D01*
X51880620Y-65631106D01*
X51975858Y-65726344D01*
X52023477Y-65869202D01*
X52023477Y-65964440D01*
X52023477Y-65107297D02*
X51023477Y-65107297D01*
X51023477Y-64726344D01*
X51071097Y-64631106D01*
X51118716Y-64583487D01*
X51213954Y-64535868D01*
X51356811Y-64535868D01*
X51452049Y-64583487D01*
X51499668Y-64631106D01*
X51547287Y-64726344D01*
X51547287Y-65107297D01*
X51023477Y-64202535D02*
X51023477Y-63583487D01*
X51404430Y-63916821D01*
X51404430Y-63773964D01*
X51452049Y-63678725D01*
X51499668Y-63631106D01*
X51594906Y-63583487D01*
X51833001Y-63583487D01*
X51928239Y-63631106D01*
X51975858Y-63678725D01*
X52023477Y-63773964D01*
X52023477Y-64059678D01*
X51975858Y-64154916D01*
X51928239Y-64202535D01*
X51356811Y-62726344D02*
X52023477Y-62726344D01*
X50975858Y-62964440D02*
X51690144Y-63202535D01*
X51690144Y-62583487D01*
X65127142Y-57166666D02*
X65174761Y-57214285D01*
X65222380Y-57357142D01*
X65222380Y-57452380D01*
X65174761Y-57595238D01*
X65079523Y-57690476D01*
X64984285Y-57738095D01*
X64793809Y-57785714D01*
X64650952Y-57785714D01*
X64460476Y-57738095D01*
X64365238Y-57690476D01*
X64270000Y-57595238D01*
X64222380Y-57452380D01*
X64222380Y-57357142D01*
X64270000Y-57214285D01*
X64317619Y-57166666D01*
X64222380Y-56261904D02*
X64222380Y-56738095D01*
X64698571Y-56785714D01*
X64650952Y-56738095D01*
X64603333Y-56642857D01*
X64603333Y-56404761D01*
X64650952Y-56309523D01*
X64698571Y-56261904D01*
X64793809Y-56214285D01*
X65031904Y-56214285D01*
X65127142Y-56261904D01*
X65174761Y-56309523D01*
X65222380Y-56404761D01*
X65222380Y-56642857D01*
X65174761Y-56738095D01*
X65127142Y-56785714D01*
X17613333Y-100687142D02*
X17565714Y-100734761D01*
X17422857Y-100782380D01*
X17327619Y-100782380D01*
X17184761Y-100734761D01*
X17089523Y-100639523D01*
X17041904Y-100544285D01*
X16994285Y-100353809D01*
X16994285Y-100210952D01*
X17041904Y-100020476D01*
X17089523Y-99925238D01*
X17184761Y-99830000D01*
X17327619Y-99782380D01*
X17422857Y-99782380D01*
X17565714Y-99830000D01*
X17613333Y-99877619D01*
X17946666Y-99782380D02*
X18565714Y-99782380D01*
X18232380Y-100163333D01*
X18375238Y-100163333D01*
X18470476Y-100210952D01*
X18518095Y-100258571D01*
X18565714Y-100353809D01*
X18565714Y-100591904D01*
X18518095Y-100687142D01*
X18470476Y-100734761D01*
X18375238Y-100782380D01*
X18089523Y-100782380D01*
X17994285Y-100734761D01*
X17946666Y-100687142D01*
X21423333Y-86167142D02*
X21375714Y-86214761D01*
X21232857Y-86262380D01*
X21137619Y-86262380D01*
X20994761Y-86214761D01*
X20899523Y-86119523D01*
X20851904Y-86024285D01*
X20804285Y-85833809D01*
X20804285Y-85690952D01*
X20851904Y-85500476D01*
X20899523Y-85405238D01*
X20994761Y-85310000D01*
X21137619Y-85262380D01*
X21232857Y-85262380D01*
X21375714Y-85310000D01*
X21423333Y-85357619D01*
X22280476Y-85595714D02*
X22280476Y-86262380D01*
X22042380Y-85214761D02*
X21804285Y-85929047D01*
X22423333Y-85929047D01*
X43254430Y-56911106D02*
X43206811Y-56958725D01*
X43063954Y-57006344D01*
X42968716Y-57006344D01*
X42825858Y-56958725D01*
X42730620Y-56863487D01*
X42683001Y-56768249D01*
X42635382Y-56577773D01*
X42635382Y-56434916D01*
X42683001Y-56244440D01*
X42730620Y-56149202D01*
X42825858Y-56053964D01*
X42968716Y-56006344D01*
X43063954Y-56006344D01*
X43206811Y-56053964D01*
X43254430Y-56101583D01*
X44206811Y-57006344D02*
X43635382Y-57006344D01*
X43921097Y-57006344D02*
X43921097Y-56006344D01*
X43825858Y-56149202D01*
X43730620Y-56244440D01*
X43635382Y-56292059D01*
X1376666Y-92212380D02*
X1376666Y-92926666D01*
X1329047Y-93069523D01*
X1233809Y-93164761D01*
X1090952Y-93212380D01*
X995714Y-93212380D01*
X2376666Y-93212380D02*
X1805238Y-93212380D01*
X2090952Y-93212380D02*
X2090952Y-92212380D01*
X1995714Y-92355238D01*
X1900476Y-92450476D01*
X1805238Y-92498095D01*
X25186666Y-116898571D02*
X24853333Y-116898571D01*
X24853333Y-117422380D02*
X24853333Y-116422380D01*
X25329523Y-116422380D01*
X26234285Y-117422380D02*
X25662857Y-117422380D01*
X25948571Y-117422380D02*
X25948571Y-116422380D01*
X25853333Y-116565238D01*
X25758095Y-116660476D01*
X25662857Y-116708095D01*
X64190476Y-48652380D02*
X64190476Y-49366666D01*
X64142857Y-49509523D01*
X64047619Y-49604761D01*
X63904761Y-49652380D01*
X63809523Y-49652380D01*
X64666666Y-49652380D02*
X64666666Y-48652380D01*
X65047619Y-48652380D01*
X65142857Y-48700000D01*
X65190476Y-48747619D01*
X65238095Y-48842857D01*
X65238095Y-48985714D01*
X65190476Y-49080952D01*
X65142857Y-49128571D01*
X65047619Y-49176190D01*
X64666666Y-49176190D01*
X66142857Y-48652380D02*
X65666666Y-48652380D01*
X65619047Y-49128571D01*
X65666666Y-49080952D01*
X65761904Y-49033333D01*
X66000000Y-49033333D01*
X66095238Y-49080952D01*
X66142857Y-49128571D01*
X66190476Y-49223809D01*
X66190476Y-49461904D01*
X66142857Y-49557142D01*
X66095238Y-49604761D01*
X66000000Y-49652380D01*
X65761904Y-49652380D01*
X65666666Y-49604761D01*
X65619047Y-49557142D01*
X67095238Y-48652380D02*
X66619047Y-48652380D01*
X66571428Y-49128571D01*
X66619047Y-49080952D01*
X66714285Y-49033333D01*
X66952380Y-49033333D01*
X67047619Y-49080952D01*
X67095238Y-49128571D01*
X67142857Y-49223809D01*
X67142857Y-49461904D01*
X67095238Y-49557142D01*
X67047619Y-49604761D01*
X66952380Y-49652380D01*
X66714285Y-49652380D01*
X66619047Y-49604761D01*
X66571428Y-49557142D01*
X64190476Y-68152380D02*
X64190476Y-68866666D01*
X64142857Y-69009523D01*
X64047619Y-69104761D01*
X63904761Y-69152380D01*
X63809523Y-69152380D01*
X64666666Y-69152380D02*
X64666666Y-68152380D01*
X65047619Y-68152380D01*
X65142857Y-68200000D01*
X65190476Y-68247619D01*
X65238095Y-68342857D01*
X65238095Y-68485714D01*
X65190476Y-68580952D01*
X65142857Y-68628571D01*
X65047619Y-68676190D01*
X64666666Y-68676190D01*
X66142857Y-68152380D02*
X65666666Y-68152380D01*
X65619047Y-68628571D01*
X65666666Y-68580952D01*
X65761904Y-68533333D01*
X66000000Y-68533333D01*
X66095238Y-68580952D01*
X66142857Y-68628571D01*
X66190476Y-68723809D01*
X66190476Y-68961904D01*
X66142857Y-69057142D01*
X66095238Y-69104761D01*
X66000000Y-69152380D01*
X65761904Y-69152380D01*
X65666666Y-69104761D01*
X65619047Y-69057142D01*
X66523809Y-68152380D02*
X67190476Y-68152380D01*
X66761904Y-69152380D01*
X64190476Y-65492380D02*
X64190476Y-66206666D01*
X64142857Y-66349523D01*
X64047619Y-66444761D01*
X63904761Y-66492380D01*
X63809523Y-66492380D01*
X64666666Y-66492380D02*
X64666666Y-65492380D01*
X65047619Y-65492380D01*
X65142857Y-65540000D01*
X65190476Y-65587619D01*
X65238095Y-65682857D01*
X65238095Y-65825714D01*
X65190476Y-65920952D01*
X65142857Y-65968571D01*
X65047619Y-66016190D01*
X64666666Y-66016190D01*
X66142857Y-65492380D02*
X65666666Y-65492380D01*
X65619047Y-65968571D01*
X65666666Y-65920952D01*
X65761904Y-65873333D01*
X66000000Y-65873333D01*
X66095238Y-65920952D01*
X66142857Y-65968571D01*
X66190476Y-66063809D01*
X66190476Y-66301904D01*
X66142857Y-66397142D01*
X66095238Y-66444761D01*
X66000000Y-66492380D01*
X65761904Y-66492380D01*
X65666666Y-66444761D01*
X65619047Y-66397142D01*
X67047619Y-65825714D02*
X67047619Y-66492380D01*
X66809523Y-65444761D02*
X66571428Y-66159047D01*
X67190476Y-66159047D01*
X64190476Y-46152380D02*
X64190476Y-46866666D01*
X64142857Y-47009523D01*
X64047619Y-47104761D01*
X63904761Y-47152380D01*
X63809523Y-47152380D01*
X64666666Y-47152380D02*
X64666666Y-46152380D01*
X65047619Y-46152380D01*
X65142857Y-46200000D01*
X65190476Y-46247619D01*
X65238095Y-46342857D01*
X65238095Y-46485714D01*
X65190476Y-46580952D01*
X65142857Y-46628571D01*
X65047619Y-46676190D01*
X64666666Y-46676190D01*
X66142857Y-46152380D02*
X65666666Y-46152380D01*
X65619047Y-46628571D01*
X65666666Y-46580952D01*
X65761904Y-46533333D01*
X66000000Y-46533333D01*
X66095238Y-46580952D01*
X66142857Y-46628571D01*
X66190476Y-46723809D01*
X66190476Y-46961904D01*
X66142857Y-47057142D01*
X66095238Y-47104761D01*
X66000000Y-47152380D01*
X65761904Y-47152380D01*
X65666666Y-47104761D01*
X65619047Y-47057142D01*
X66761904Y-46580952D02*
X66666666Y-46533333D01*
X66619047Y-46485714D01*
X66571428Y-46390476D01*
X66571428Y-46342857D01*
X66619047Y-46247619D01*
X66666666Y-46200000D01*
X66761904Y-46152380D01*
X66952380Y-46152380D01*
X67047619Y-46200000D01*
X67095238Y-46247619D01*
X67142857Y-46342857D01*
X67142857Y-46390476D01*
X67095238Y-46485714D01*
X67047619Y-46533333D01*
X66952380Y-46580952D01*
X66761904Y-46580952D01*
X66666666Y-46628571D01*
X66619047Y-46676190D01*
X66571428Y-46771428D01*
X66571428Y-46961904D01*
X66619047Y-47057142D01*
X66666666Y-47104761D01*
X66761904Y-47152380D01*
X66952380Y-47152380D01*
X67047619Y-47104761D01*
X67095238Y-47057142D01*
X67142857Y-46961904D01*
X67142857Y-46771428D01*
X67095238Y-46676190D01*
X67047619Y-46628571D01*
X66952380Y-46580952D01*
X64190476Y-65652380D02*
X64190476Y-66366666D01*
X64142857Y-66509523D01*
X64047619Y-66604761D01*
X63904761Y-66652380D01*
X63809523Y-66652380D01*
X64666666Y-66652380D02*
X64666666Y-65652380D01*
X65047619Y-65652380D01*
X65142857Y-65700000D01*
X65190476Y-65747619D01*
X65238095Y-65842857D01*
X65238095Y-65985714D01*
X65190476Y-66080952D01*
X65142857Y-66128571D01*
X65047619Y-66176190D01*
X64666666Y-66176190D01*
X66142857Y-65652380D02*
X65666666Y-65652380D01*
X65619047Y-66128571D01*
X65666666Y-66080952D01*
X65761904Y-66033333D01*
X66000000Y-66033333D01*
X66095238Y-66080952D01*
X66142857Y-66128571D01*
X66190476Y-66223809D01*
X66190476Y-66461904D01*
X66142857Y-66557142D01*
X66095238Y-66604761D01*
X66000000Y-66652380D01*
X65761904Y-66652380D01*
X65666666Y-66604761D01*
X65619047Y-66557142D01*
X67047619Y-65652380D02*
X66857142Y-65652380D01*
X66761904Y-65700000D01*
X66714285Y-65747619D01*
X66619047Y-65890476D01*
X66571428Y-66080952D01*
X66571428Y-66461904D01*
X66619047Y-66557142D01*
X66666666Y-66604761D01*
X66761904Y-66652380D01*
X66952380Y-66652380D01*
X67047619Y-66604761D01*
X67095238Y-66557142D01*
X67142857Y-66461904D01*
X67142857Y-66223809D01*
X67095238Y-66128571D01*
X67047619Y-66080952D01*
X66952380Y-66033333D01*
X66761904Y-66033333D01*
X66666666Y-66080952D01*
X66619047Y-66128571D01*
X66571428Y-66223809D01*
X23391904Y-105862380D02*
X23391904Y-104862380D01*
X23630000Y-104862380D01*
X23772857Y-104910000D01*
X23868095Y-105005238D01*
X23915714Y-105100476D01*
X23963333Y-105290952D01*
X23963333Y-105433809D01*
X23915714Y-105624285D01*
X23868095Y-105719523D01*
X23772857Y-105814761D01*
X23630000Y-105862380D01*
X23391904Y-105862380D01*
X24915714Y-105862380D02*
X24344285Y-105862380D01*
X24630000Y-105862380D02*
X24630000Y-104862380D01*
X24534761Y-105005238D01*
X24439523Y-105100476D01*
X24344285Y-105148095D01*
X23391904Y-82842380D02*
X23391904Y-81842380D01*
X23630000Y-81842380D01*
X23772857Y-81890000D01*
X23868095Y-81985238D01*
X23915714Y-82080476D01*
X23963333Y-82270952D01*
X23963333Y-82413809D01*
X23915714Y-82604285D01*
X23868095Y-82699523D01*
X23772857Y-82794761D01*
X23630000Y-82842380D01*
X23391904Y-82842380D01*
X24344285Y-81937619D02*
X24391904Y-81890000D01*
X24487142Y-81842380D01*
X24725238Y-81842380D01*
X24820476Y-81890000D01*
X24868095Y-81937619D01*
X24915714Y-82032857D01*
X24915714Y-82128095D01*
X24868095Y-82270952D01*
X24296666Y-82842380D01*
X24915714Y-82842380D01*
X69302380Y-66801904D02*
X70111904Y-66801904D01*
X70207142Y-66754285D01*
X70254761Y-66706666D01*
X70302380Y-66611428D01*
X70302380Y-66420952D01*
X70254761Y-66325714D01*
X70207142Y-66278095D01*
X70111904Y-66230476D01*
X69302380Y-66230476D01*
X69635714Y-65325714D02*
X70302380Y-65325714D01*
X69254761Y-65563809D02*
X69969047Y-65801904D01*
X69969047Y-65182857D01*
X25908095Y-93432380D02*
X25908095Y-94241904D01*
X25955714Y-94337142D01*
X26003333Y-94384761D01*
X26098571Y-94432380D01*
X26289047Y-94432380D01*
X26384285Y-94384761D01*
X26431904Y-94337142D01*
X26479523Y-94241904D01*
X26479523Y-93432380D01*
X26860476Y-93432380D02*
X27479523Y-93432380D01*
X27146190Y-93813333D01*
X27289047Y-93813333D01*
X27384285Y-93860952D01*
X27431904Y-93908571D01*
X27479523Y-94003809D01*
X27479523Y-94241904D01*
X27431904Y-94337142D01*
X27384285Y-94384761D01*
X27289047Y-94432380D01*
X27003333Y-94432380D01*
X26908095Y-94384761D01*
X26860476Y-94337142D01*
X18883333Y-82842380D02*
X18550000Y-82366190D01*
X18311904Y-82842380D02*
X18311904Y-81842380D01*
X18692857Y-81842380D01*
X18788095Y-81890000D01*
X18835714Y-81937619D01*
X18883333Y-82032857D01*
X18883333Y-82175714D01*
X18835714Y-82270952D01*
X18788095Y-82318571D01*
X18692857Y-82366190D01*
X18311904Y-82366190D01*
X19264285Y-81937619D02*
X19311904Y-81890000D01*
X19407142Y-81842380D01*
X19645238Y-81842380D01*
X19740476Y-81890000D01*
X19788095Y-81937619D01*
X19835714Y-82032857D01*
X19835714Y-82128095D01*
X19788095Y-82270952D01*
X19216666Y-82842380D01*
X19835714Y-82842380D01*
X18883333Y-105862380D02*
X18550000Y-105386190D01*
X18311904Y-105862380D02*
X18311904Y-104862380D01*
X18692857Y-104862380D01*
X18788095Y-104910000D01*
X18835714Y-104957619D01*
X18883333Y-105052857D01*
X18883333Y-105195714D01*
X18835714Y-105290952D01*
X18788095Y-105338571D01*
X18692857Y-105386190D01*
X18311904Y-105386190D01*
X19835714Y-105862380D02*
X19264285Y-105862380D01*
X19550000Y-105862380D02*
X19550000Y-104862380D01*
X19454761Y-105005238D01*
X19359523Y-105100476D01*
X19264285Y-105148095D01*
X70477142Y-53792380D02*
X70143809Y-53316190D01*
X69905714Y-53792380D02*
X69905714Y-52792380D01*
X70286666Y-52792380D01*
X70381904Y-52840000D01*
X70429523Y-52887619D01*
X70477142Y-52982857D01*
X70477142Y-53125714D01*
X70429523Y-53220952D01*
X70381904Y-53268571D01*
X70286666Y-53316190D01*
X69905714Y-53316190D01*
X71429523Y-53792380D02*
X70858095Y-53792380D01*
X71143809Y-53792380D02*
X71143809Y-52792380D01*
X71048571Y-52935238D01*
X70953333Y-53030476D01*
X70858095Y-53078095D01*
X72286666Y-53125714D02*
X72286666Y-53792380D01*
X72048571Y-52744761D02*
X71810476Y-53459047D01*
X72429523Y-53459047D01*
X65222380Y-62872857D02*
X64746190Y-63206190D01*
X65222380Y-63444285D02*
X64222380Y-63444285D01*
X64222380Y-63063333D01*
X64270000Y-62968095D01*
X64317619Y-62920476D01*
X64412857Y-62872857D01*
X64555714Y-62872857D01*
X64650952Y-62920476D01*
X64698571Y-62968095D01*
X64746190Y-63063333D01*
X64746190Y-63444285D01*
X65222380Y-61920476D02*
X65222380Y-62491904D01*
X65222380Y-62206190D02*
X64222380Y-62206190D01*
X64365238Y-62301428D01*
X64460476Y-62396666D01*
X64508095Y-62491904D01*
X65222380Y-60968095D02*
X65222380Y-61539523D01*
X65222380Y-61253809D02*
X64222380Y-61253809D01*
X64365238Y-61349047D01*
X64460476Y-61444285D01*
X64508095Y-61539523D01*
D16*
X18314285Y-28452380D02*
X18314285Y-29261904D01*
X18357142Y-29357142D01*
X18400000Y-29404761D01*
X18485714Y-29452380D01*
X18657142Y-29452380D01*
X18742857Y-29404761D01*
X18785714Y-29357142D01*
X18828571Y-29261904D01*
X18828571Y-28452380D01*
X19214285Y-28547619D02*
X19257142Y-28500000D01*
X19342857Y-28452380D01*
X19557142Y-28452380D01*
X19642857Y-28500000D01*
X19685714Y-28547619D01*
X19728571Y-28642857D01*
X19728571Y-28738095D01*
X19685714Y-28880952D01*
X19171428Y-29452380D01*
X19728571Y-29452380D01*
X14842857Y-29166666D02*
X15271428Y-29166666D01*
X14757142Y-29452380D02*
X15057142Y-28452380D01*
X15357142Y-29452380D01*
X15657142Y-28452380D02*
X15657142Y-29261904D01*
X15700000Y-29357142D01*
X15742857Y-29404761D01*
X15828571Y-29452380D01*
X16000000Y-29452380D01*
X16085714Y-29404761D01*
X16128571Y-29357142D01*
X16171428Y-29261904D01*
X16171428Y-28452380D01*
X16600000Y-29452380D02*
X16600000Y-28452380D01*
X16814285Y-28452380D01*
X16942857Y-28500000D01*
X17028571Y-28595238D01*
X17071428Y-28690476D01*
X17114285Y-28880952D01*
X17114285Y-29023809D01*
X17071428Y-29214285D01*
X17028571Y-29309523D01*
X16942857Y-29404761D01*
X16814285Y-29452380D01*
X16600000Y-29452380D01*
X17500000Y-29452380D02*
X17500000Y-28452380D01*
X18100000Y-28452380D02*
X18271428Y-28452380D01*
X18357142Y-28500000D01*
X18442857Y-28595238D01*
X18485714Y-28785714D01*
X18485714Y-29119047D01*
X18442857Y-29309523D01*
X18357142Y-29404761D01*
X18271428Y-29452380D01*
X18100000Y-29452380D01*
X18014285Y-29404761D01*
X17928571Y-29309523D01*
X17885714Y-29119047D01*
X17885714Y-28785714D01*
X17928571Y-28595238D01*
X18014285Y-28500000D01*
X18100000Y-28452380D01*
X18828571Y-29404761D02*
X18957142Y-29452380D01*
X19171428Y-29452380D01*
X19257142Y-29404761D01*
X19300000Y-29357142D01*
X19342857Y-29261904D01*
X19342857Y-29166666D01*
X19300000Y-29071428D01*
X19257142Y-29023809D01*
X19171428Y-28976190D01*
X19000000Y-28928571D01*
X18914285Y-28880952D01*
X18871428Y-28833333D01*
X18828571Y-28738095D01*
X18828571Y-28642857D01*
X18871428Y-28547619D01*
X18914285Y-28500000D01*
X19000000Y-28452380D01*
X19214285Y-28452380D01*
X19342857Y-28500000D01*
X19728571Y-29452380D02*
X19728571Y-28452380D01*
X19728571Y-28928571D02*
X20242857Y-28928571D01*
X20242857Y-29452380D02*
X20242857Y-28452380D01*
X20671428Y-29452380D02*
X20671428Y-28452380D01*
X21100000Y-28928571D02*
X21400000Y-28928571D01*
X21528571Y-29452380D02*
X21100000Y-29452380D01*
X21100000Y-28452380D01*
X21528571Y-28452380D01*
X22342857Y-29452380D02*
X21914285Y-29452380D01*
X21914285Y-28452380D01*
X22642857Y-29452380D02*
X22642857Y-28452380D01*
X22857142Y-28452380D01*
X22985714Y-28500000D01*
X23071428Y-28595238D01*
X23114285Y-28690476D01*
X23157142Y-28880952D01*
X23157142Y-29023809D01*
X23114285Y-29214285D01*
X23071428Y-29309523D01*
X22985714Y-29404761D01*
X22857142Y-29452380D01*
X22642857Y-29452380D01*
X10408350Y-26624501D02*
X10884541Y-26624501D01*
X10313112Y-26910215D02*
X10646446Y-25910215D01*
X10979779Y-26910215D01*
X11741684Y-26243549D02*
X11741684Y-26910215D01*
X11313112Y-26243549D02*
X11313112Y-26767358D01*
X11360731Y-26862596D01*
X11455969Y-26910215D01*
X11598827Y-26910215D01*
X11694065Y-26862596D01*
X11741684Y-26814977D01*
X12646446Y-26910215D02*
X12646446Y-25910215D01*
X12646446Y-26862596D02*
X12551208Y-26910215D01*
X12360731Y-26910215D01*
X12265493Y-26862596D01*
X12217874Y-26814977D01*
X12170255Y-26719739D01*
X12170255Y-26434025D01*
X12217874Y-26338787D01*
X12265493Y-26291168D01*
X12360731Y-26243549D01*
X12551208Y-26243549D01*
X12646446Y-26291168D01*
X13122636Y-26910215D02*
X13122636Y-26243549D01*
X13122636Y-25910215D02*
X13075017Y-25957835D01*
X13122636Y-26005454D01*
X13170255Y-25957835D01*
X13122636Y-25910215D01*
X13122636Y-26005454D01*
X13741684Y-26910215D02*
X13646446Y-26862596D01*
X13598827Y-26814977D01*
X13551208Y-26719739D01*
X13551208Y-26434025D01*
X13598827Y-26338787D01*
X13646446Y-26291168D01*
X13741684Y-26243549D01*
X13884541Y-26243549D01*
X13979779Y-26291168D01*
X14027398Y-26338787D01*
X14075017Y-26434025D01*
X14075017Y-26719739D01*
X14027398Y-26814977D01*
X13979779Y-26862596D01*
X13884541Y-26910215D01*
X13741684Y-26910215D01*
X14426118Y-25672835D02*
X15217874Y-25672835D01*
X14455969Y-26862596D02*
X14598827Y-26910215D01*
X14836922Y-26910215D01*
X14932160Y-26862596D01*
X14979779Y-26814977D01*
X15027398Y-26719739D01*
X15027398Y-26624501D01*
X14979779Y-26529263D01*
X14932160Y-26481644D01*
X14836922Y-26434025D01*
X14646446Y-26386406D01*
X14551208Y-26338787D01*
X14503588Y-26291168D01*
X14455969Y-26195930D01*
X14455969Y-26100692D01*
X14503588Y-26005454D01*
X14551208Y-25957835D01*
X14646446Y-25910215D01*
X14884541Y-25910215D01*
X15027398Y-25957835D01*
X15217874Y-25672835D02*
X16122636Y-25672835D01*
X15455969Y-26910215D02*
X15455969Y-25910215D01*
X15884541Y-26910215D02*
X15884541Y-26386406D01*
X15836922Y-26291168D01*
X15741684Y-26243549D01*
X15598827Y-26243549D01*
X15503588Y-26291168D01*
X15455969Y-26338787D01*
X16122636Y-25672835D02*
X16598827Y-25672835D01*
X16360731Y-26910215D02*
X16360731Y-26243549D01*
X16360731Y-25910215D02*
X16313112Y-25957835D01*
X16360731Y-26005454D01*
X16408350Y-25957835D01*
X16360731Y-25910215D01*
X16360731Y-26005454D01*
X16598827Y-25672835D02*
X17455969Y-25672835D01*
X17217874Y-26862596D02*
X17122636Y-26910215D01*
X16932160Y-26910215D01*
X16836922Y-26862596D01*
X16789303Y-26767358D01*
X16789303Y-26386406D01*
X16836922Y-26291168D01*
X16932160Y-26243549D01*
X17122636Y-26243549D01*
X17217874Y-26291168D01*
X17265493Y-26386406D01*
X17265493Y-26481644D01*
X16789303Y-26576882D01*
X17455969Y-25672835D02*
X17979779Y-25672835D01*
X17836922Y-26910215D02*
X17741684Y-26862596D01*
X17694065Y-26767358D01*
X17694065Y-25910215D01*
X17979779Y-25672835D02*
X18884541Y-25672835D01*
X18646446Y-26910215D02*
X18646446Y-25910215D01*
X18646446Y-26862596D02*
X18551208Y-26910215D01*
X18360731Y-26910215D01*
X18265493Y-26862596D01*
X18217874Y-26814977D01*
X18170255Y-26719739D01*
X18170255Y-26434025D01*
X18217874Y-26338787D01*
X18265493Y-26291168D01*
X18360731Y-26243549D01*
X18551208Y-26243549D01*
X18646446Y-26291168D01*
X36117410Y-105169520D02*
X36833875Y-105169520D01*
X36977167Y-105217284D01*
X37072696Y-105312812D01*
X37120460Y-105456105D01*
X37120460Y-105551634D01*
X36117410Y-104787405D02*
X36117410Y-104166470D01*
X36499525Y-104500820D01*
X36499525Y-104357527D01*
X36547289Y-104261998D01*
X36595053Y-104214234D01*
X36690582Y-104166470D01*
X36929403Y-104166470D01*
X37024932Y-104214234D01*
X37072696Y-104261998D01*
X37120460Y-104357527D01*
X37120460Y-104644112D01*
X37072696Y-104739641D01*
X37024932Y-104787405D01*
X102054938Y-110615805D02*
X102054938Y-110281851D01*
X102579722Y-110138729D02*
X102579722Y-110615805D01*
X101577862Y-110615805D01*
X101577862Y-110138729D01*
X101577862Y-109232284D02*
X101577862Y-109709360D01*
X102054938Y-109757068D01*
X102007230Y-109709360D01*
X101959523Y-109613945D01*
X101959523Y-109375407D01*
X102007230Y-109279991D01*
X102054938Y-109232284D01*
X102150353Y-109184576D01*
X102388891Y-109184576D01*
X102484307Y-109232284D01*
X102532014Y-109279991D01*
X102579722Y-109375407D01*
X102579722Y-109613945D01*
X102532014Y-109709360D01*
X102484307Y-109757068D01*
X102579722Y-108707500D02*
X102579722Y-108516670D01*
X102532014Y-108421254D01*
X102484307Y-108373547D01*
X102341184Y-108278131D01*
X102150353Y-108230424D01*
X101768692Y-108230424D01*
X101673277Y-108278131D01*
X101625570Y-108325839D01*
X101577862Y-108421254D01*
X101577862Y-108612085D01*
X101625570Y-108707500D01*
X101673277Y-108755208D01*
X101768692Y-108802915D01*
X102007230Y-108802915D01*
X102102646Y-108755208D01*
X102150353Y-108707500D01*
X102198061Y-108612085D01*
X102198061Y-108421254D01*
X102150353Y-108325839D01*
X102102646Y-108278131D01*
X102007230Y-108230424D01*
X101577862Y-107610225D02*
X101577862Y-107514810D01*
X101625570Y-107419394D01*
X101673277Y-107371687D01*
X101768692Y-107323979D01*
X101959523Y-107276271D01*
X102198061Y-107276271D01*
X102388891Y-107323979D01*
X102484307Y-107371687D01*
X102532014Y-107419394D01*
X102579722Y-107514810D01*
X102579722Y-107610225D01*
X102532014Y-107705640D01*
X102484307Y-107753348D01*
X102388891Y-107801055D01*
X102198061Y-107848763D01*
X101959523Y-107848763D01*
X101768692Y-107801055D01*
X101673277Y-107753348D01*
X101625570Y-107705640D01*
X101577862Y-107610225D01*
X102007230Y-106703780D02*
X101959523Y-106799195D01*
X101911815Y-106846903D01*
X101816400Y-106894610D01*
X101768692Y-106894610D01*
X101673277Y-106846903D01*
X101625570Y-106799195D01*
X101577862Y-106703780D01*
X101577862Y-106512950D01*
X101625570Y-106417534D01*
X101673277Y-106369827D01*
X101768692Y-106322119D01*
X101816400Y-106322119D01*
X101911815Y-106369827D01*
X101959523Y-106417534D01*
X102007230Y-106512950D01*
X102007230Y-106703780D01*
X102054938Y-106799195D01*
X102102646Y-106846903D01*
X102198061Y-106894610D01*
X102388891Y-106894610D01*
X102484307Y-106846903D01*
X102532014Y-106799195D01*
X102579722Y-106703780D01*
X102579722Y-106512950D01*
X102532014Y-106417534D01*
X102484307Y-106369827D01*
X102388891Y-106322119D01*
X102198061Y-106322119D01*
X102102646Y-106369827D01*
X102054938Y-106417534D01*
X102007230Y-106512950D01*
X102198061Y-105892750D02*
X102198061Y-105129429D01*
X101577862Y-104175276D02*
X101577862Y-104652352D01*
X102054938Y-104700060D01*
X102007230Y-104652352D01*
X101959523Y-104556937D01*
X101959523Y-104318399D01*
X102007230Y-104222984D01*
X102054938Y-104175276D01*
X102150353Y-104127569D01*
X102388891Y-104127569D01*
X102484307Y-104175276D01*
X102532014Y-104222984D01*
X102579722Y-104318399D01*
X102579722Y-104556937D01*
X102532014Y-104652352D01*
X102484307Y-104700060D01*
X101577862Y-103841323D02*
X102579722Y-103507370D01*
X101577862Y-103173416D01*
X102484307Y-102266971D02*
X102532014Y-102314679D01*
X102579722Y-102457802D01*
X102579722Y-102553217D01*
X102532014Y-102696340D01*
X102436599Y-102791755D01*
X102341184Y-102839463D01*
X102150353Y-102887170D01*
X102007230Y-102887170D01*
X101816400Y-102839463D01*
X101720985Y-102791755D01*
X101625570Y-102696340D01*
X101577862Y-102553217D01*
X101577862Y-102457802D01*
X101625570Y-102314679D01*
X101673277Y-102266971D01*
X102579722Y-101312819D02*
X102579722Y-101885310D01*
X102579722Y-101599065D02*
X101577862Y-101599065D01*
X101720985Y-101694480D01*
X101816400Y-101789895D01*
X101864108Y-101885310D01*
X101911815Y-100454082D02*
X102579722Y-100454082D01*
X101530154Y-100692620D02*
X102245769Y-100931158D01*
X102245769Y-100310959D01*
X101577862Y-99452222D02*
X101577862Y-99929298D01*
X102054938Y-99977006D01*
X102007230Y-99929298D01*
X101959523Y-99833883D01*
X101959523Y-99595345D01*
X102007230Y-99499930D01*
X102054938Y-99452222D01*
X102150353Y-99404514D01*
X102388891Y-99404514D01*
X102484307Y-99452222D01*
X102532014Y-99499930D01*
X102579722Y-99595345D01*
X102579722Y-99833883D01*
X102532014Y-99929298D01*
X102484307Y-99977006D01*
X102198061Y-98975146D02*
X102198061Y-98211824D01*
X102579722Y-97257671D02*
X102579722Y-97734748D01*
X101577862Y-97734748D01*
X41937167Y-98225081D02*
X42413358Y-98225081D01*
X41841929Y-98510795D02*
X42175263Y-97510795D01*
X42508596Y-98510795D01*
X42454741Y-104507479D02*
X42597598Y-104555098D01*
X42645217Y-104602717D01*
X42692836Y-104697955D01*
X42692836Y-104840812D01*
X42645217Y-104936050D01*
X42597598Y-104983669D01*
X42502360Y-105031288D01*
X42121408Y-105031288D01*
X42121408Y-104031288D01*
X42454741Y-104031288D01*
X42549979Y-104078908D01*
X42597598Y-104126527D01*
X42645217Y-104221765D01*
X42645217Y-104317003D01*
X42597598Y-104412241D01*
X42549979Y-104459860D01*
X42454741Y-104507479D01*
X42121408Y-104507479D01*
X55915352Y-98457974D02*
X55867733Y-98505593D01*
X55724876Y-98553212D01*
X55629638Y-98553212D01*
X55486781Y-98505593D01*
X55391543Y-98410355D01*
X55343924Y-98315117D01*
X55296305Y-98124641D01*
X55296305Y-97981784D01*
X55343924Y-97791308D01*
X55391543Y-97696070D01*
X55486781Y-97600832D01*
X55629638Y-97553212D01*
X55724876Y-97553212D01*
X55867733Y-97600832D01*
X55915352Y-97648451D01*
X55260318Y-104884691D02*
X55260318Y-103884691D01*
X55498413Y-103884691D01*
X55641270Y-103932311D01*
X55736508Y-104027549D01*
X55784127Y-104122787D01*
X55831746Y-104313263D01*
X55831746Y-104456120D01*
X55784127Y-104646596D01*
X55736508Y-104741834D01*
X55641270Y-104837072D01*
X55498413Y-104884691D01*
X55260318Y-104884691D01*
X69839482Y-97975154D02*
X70172815Y-97975154D01*
X70315672Y-98498963D02*
X69839482Y-98498963D01*
X69839482Y-97498963D01*
X70315672Y-97498963D01*
X70395032Y-104614159D02*
X70061698Y-104614159D01*
X70061698Y-105137968D02*
X70061698Y-104137968D01*
X70537889Y-104137968D01*
X70395799Y-104609053D02*
X70062465Y-104609053D01*
X70062465Y-105132862D02*
X70062465Y-104132862D01*
X70538656Y-104132862D01*
X84181290Y-97730803D02*
X84086052Y-97683183D01*
X83943195Y-97683183D01*
X83800338Y-97730803D01*
X83705100Y-97826041D01*
X83657481Y-97921279D01*
X83609862Y-98111755D01*
X83609862Y-98254612D01*
X83657481Y-98445088D01*
X83705100Y-98540326D01*
X83800338Y-98635564D01*
X83943195Y-98683183D01*
X84038433Y-98683183D01*
X84181290Y-98635564D01*
X84228909Y-98587945D01*
X84228909Y-98254612D01*
X84038433Y-98254612D01*
X83702799Y-105281359D02*
X83702799Y-104281359D01*
X83702799Y-104757550D02*
X84274228Y-104757550D01*
X84274228Y-105281359D02*
X84274228Y-104281359D01*
X94500820Y-91784010D02*
X94500820Y-92500475D01*
X94453055Y-92643767D01*
X94357527Y-92739296D01*
X94214234Y-92787060D01*
X94118705Y-92787060D01*
X94930698Y-91879539D02*
X94978462Y-91831775D01*
X95073991Y-91784010D01*
X95312812Y-91784010D01*
X95408341Y-91831775D01*
X95456105Y-91879539D01*
X95503870Y-91975067D01*
X95503870Y-92070596D01*
X95456105Y-92213889D01*
X94882934Y-92787060D01*
X95503870Y-92787060D01*
X87400794Y-26801938D02*
X87734748Y-26801938D01*
X87877870Y-27326722D02*
X87400794Y-27326722D01*
X87400794Y-26324862D01*
X87877870Y-26324862D01*
X88784315Y-26324862D02*
X88307239Y-26324862D01*
X88259531Y-26801938D01*
X88307239Y-26754230D01*
X88402654Y-26706523D01*
X88641192Y-26706523D01*
X88736608Y-26754230D01*
X88784315Y-26801938D01*
X88832023Y-26897353D01*
X88832023Y-27135891D01*
X88784315Y-27231307D01*
X88736608Y-27279014D01*
X88641192Y-27326722D01*
X88402654Y-27326722D01*
X88307239Y-27279014D01*
X88259531Y-27231307D01*
X89309099Y-27326722D02*
X89499930Y-27326722D01*
X89595345Y-27279014D01*
X89643052Y-27231307D01*
X89738468Y-27088184D01*
X89786175Y-26897353D01*
X89786175Y-26515692D01*
X89738468Y-26420277D01*
X89690760Y-26372570D01*
X89595345Y-26324862D01*
X89404514Y-26324862D01*
X89309099Y-26372570D01*
X89261391Y-26420277D01*
X89213684Y-26515692D01*
X89213684Y-26754230D01*
X89261391Y-26849646D01*
X89309099Y-26897353D01*
X89404514Y-26945061D01*
X89595345Y-26945061D01*
X89690760Y-26897353D01*
X89738468Y-26849646D01*
X89786175Y-26754230D01*
X90406374Y-26324862D02*
X90501790Y-26324862D01*
X90597205Y-26372570D01*
X90644912Y-26420277D01*
X90692620Y-26515692D01*
X90740328Y-26706523D01*
X90740328Y-26945061D01*
X90692620Y-27135891D01*
X90644912Y-27231307D01*
X90597205Y-27279014D01*
X90501790Y-27326722D01*
X90406374Y-27326722D01*
X90310959Y-27279014D01*
X90263251Y-27231307D01*
X90215544Y-27135891D01*
X90167836Y-26945061D01*
X90167836Y-26706523D01*
X90215544Y-26515692D01*
X90263251Y-26420277D01*
X90310959Y-26372570D01*
X90406374Y-26324862D01*
X91312819Y-26754230D02*
X91217404Y-26706523D01*
X91169696Y-26658815D01*
X91121989Y-26563400D01*
X91121989Y-26515692D01*
X91169696Y-26420277D01*
X91217404Y-26372570D01*
X91312819Y-26324862D01*
X91503650Y-26324862D01*
X91599065Y-26372570D01*
X91646772Y-26420277D01*
X91694480Y-26515692D01*
X91694480Y-26563400D01*
X91646772Y-26658815D01*
X91599065Y-26706523D01*
X91503650Y-26754230D01*
X91312819Y-26754230D01*
X91217404Y-26801938D01*
X91169696Y-26849646D01*
X91121989Y-26945061D01*
X91121989Y-27135891D01*
X91169696Y-27231307D01*
X91217404Y-27279014D01*
X91312819Y-27326722D01*
X91503650Y-27326722D01*
X91599065Y-27279014D01*
X91646772Y-27231307D01*
X91694480Y-27135891D01*
X91694480Y-26945061D01*
X91646772Y-26849646D01*
X91599065Y-26801938D01*
X91503650Y-26754230D01*
X92123849Y-26945061D02*
X92887170Y-26945061D01*
X93841323Y-26324862D02*
X93364247Y-26324862D01*
X93316539Y-26801938D01*
X93364247Y-26754230D01*
X93459662Y-26706523D01*
X93698200Y-26706523D01*
X93793615Y-26754230D01*
X93841323Y-26801938D01*
X93889030Y-26897353D01*
X93889030Y-27135891D01*
X93841323Y-27231307D01*
X93793615Y-27279014D01*
X93698200Y-27326722D01*
X93459662Y-27326722D01*
X93364247Y-27279014D01*
X93316539Y-27231307D01*
X94175276Y-26324862D02*
X94509230Y-27326722D01*
X94843183Y-26324862D01*
X95749628Y-27231307D02*
X95701920Y-27279014D01*
X95558797Y-27326722D01*
X95463382Y-27326722D01*
X95320259Y-27279014D01*
X95224844Y-27183599D01*
X95177136Y-27088184D01*
X95129429Y-26897353D01*
X95129429Y-26754230D01*
X95177136Y-26563400D01*
X95224844Y-26467985D01*
X95320259Y-26372570D01*
X95463382Y-26324862D01*
X95558797Y-26324862D01*
X95701920Y-26372570D01*
X95749628Y-26420277D01*
X96703780Y-27326722D02*
X96131289Y-27326722D01*
X96417534Y-27326722D02*
X96417534Y-26324862D01*
X96322119Y-26467985D01*
X96226704Y-26563400D01*
X96131289Y-26611108D01*
X97562517Y-26658815D02*
X97562517Y-27326722D01*
X97323979Y-26277154D02*
X97085441Y-26992769D01*
X97705640Y-26992769D01*
X98564377Y-26324862D02*
X98087301Y-26324862D01*
X98039593Y-26801938D01*
X98087301Y-26754230D01*
X98182716Y-26706523D01*
X98421254Y-26706523D01*
X98516670Y-26754230D01*
X98564377Y-26801938D01*
X98612085Y-26897353D01*
X98612085Y-27135891D01*
X98564377Y-27231307D01*
X98516670Y-27279014D01*
X98421254Y-27326722D01*
X98182716Y-27326722D01*
X98087301Y-27279014D01*
X98039593Y-27231307D01*
X99041453Y-26945061D02*
X99804775Y-26945061D01*
X100758928Y-27326722D02*
X100281851Y-27326722D01*
X100281851Y-26324862D01*
X95281359Y-45297200D02*
X94281359Y-45297200D01*
X94757550Y-45297200D02*
X94757550Y-44725771D01*
X95281359Y-44725771D02*
X94281359Y-44725771D01*
X87730803Y-44818709D02*
X87683183Y-44913947D01*
X87683183Y-45056804D01*
X87730803Y-45199661D01*
X87826041Y-45294899D01*
X87921279Y-45342518D01*
X88111755Y-45390137D01*
X88254612Y-45390137D01*
X88445088Y-45342518D01*
X88540326Y-45294899D01*
X88635564Y-45199661D01*
X88683183Y-45056804D01*
X88683183Y-44961566D01*
X88635564Y-44818709D01*
X88587945Y-44771090D01*
X88254612Y-44771090D01*
X88254612Y-44961566D01*
X94609053Y-58604200D02*
X94609053Y-58937534D01*
X95132862Y-58937534D02*
X94132862Y-58937534D01*
X94132862Y-58461343D01*
X94614159Y-58604967D02*
X94614159Y-58938301D01*
X95137968Y-58938301D02*
X94137968Y-58938301D01*
X94137968Y-58462110D01*
X87975154Y-59160517D02*
X87975154Y-58827184D01*
X88498963Y-58684327D02*
X88498963Y-59160517D01*
X87498963Y-59160517D01*
X87498963Y-58684327D01*
X94884691Y-73739681D02*
X93884691Y-73739681D01*
X93884691Y-73501586D01*
X93932311Y-73358729D01*
X94027549Y-73263491D01*
X94122787Y-73215872D01*
X94313263Y-73168253D01*
X94456120Y-73168253D01*
X94646596Y-73215872D01*
X94741834Y-73263491D01*
X94837072Y-73358729D01*
X94884691Y-73501586D01*
X94884691Y-73739681D01*
X88457974Y-73084647D02*
X88505593Y-73132266D01*
X88553212Y-73275123D01*
X88553212Y-73370361D01*
X88505593Y-73513218D01*
X88410355Y-73608456D01*
X88315117Y-73656075D01*
X88124641Y-73703694D01*
X87981784Y-73703694D01*
X87791308Y-73656075D01*
X87696070Y-73608456D01*
X87600832Y-73513218D01*
X87553212Y-73370361D01*
X87553212Y-73275123D01*
X87600832Y-73132266D01*
X87648451Y-73084647D01*
X94507479Y-86545258D02*
X94555098Y-86402401D01*
X94602717Y-86354782D01*
X94697955Y-86307163D01*
X94840812Y-86307163D01*
X94936050Y-86354782D01*
X94983669Y-86402401D01*
X95031288Y-86497639D01*
X95031288Y-86878591D01*
X94031288Y-86878591D01*
X94031288Y-86545258D01*
X94078908Y-86450020D01*
X94126527Y-86402401D01*
X94221765Y-86354782D01*
X94317003Y-86354782D01*
X94412241Y-86402401D01*
X94459860Y-86450020D01*
X94507479Y-86545258D01*
X94507479Y-86878591D01*
X88225081Y-87062832D02*
X88225081Y-86586641D01*
X88510795Y-87158070D02*
X87510795Y-86824737D01*
X88510795Y-86491403D01*
X100784010Y-15499180D02*
X101500475Y-15499180D01*
X101643767Y-15546944D01*
X101739296Y-15642472D01*
X101787060Y-15785765D01*
X101787060Y-15881294D01*
X101118360Y-14591658D02*
X101787060Y-14591658D01*
X100736246Y-14830480D02*
X101452710Y-15069301D01*
X101452710Y-14448365D01*
X35801938Y-22599205D02*
X35801938Y-22265251D01*
X36326722Y-22122129D02*
X36326722Y-22599205D01*
X35324862Y-22599205D01*
X35324862Y-22122129D01*
X35324862Y-21215684D02*
X35324862Y-21692760D01*
X35801938Y-21740468D01*
X35754230Y-21692760D01*
X35706523Y-21597345D01*
X35706523Y-21358807D01*
X35754230Y-21263391D01*
X35801938Y-21215684D01*
X35897353Y-21167976D01*
X36135891Y-21167976D01*
X36231307Y-21215684D01*
X36279014Y-21263391D01*
X36326722Y-21358807D01*
X36326722Y-21597345D01*
X36279014Y-21692760D01*
X36231307Y-21740468D01*
X36326722Y-20690900D02*
X36326722Y-20500070D01*
X36279014Y-20404654D01*
X36231307Y-20356947D01*
X36088184Y-20261531D01*
X35897353Y-20213824D01*
X35515692Y-20213824D01*
X35420277Y-20261531D01*
X35372570Y-20309239D01*
X35324862Y-20404654D01*
X35324862Y-20595485D01*
X35372570Y-20690900D01*
X35420277Y-20738608D01*
X35515692Y-20786315D01*
X35754230Y-20786315D01*
X35849646Y-20738608D01*
X35897353Y-20690900D01*
X35945061Y-20595485D01*
X35945061Y-20404654D01*
X35897353Y-20309239D01*
X35849646Y-20261531D01*
X35754230Y-20213824D01*
X35324862Y-19593625D02*
X35324862Y-19498210D01*
X35372570Y-19402794D01*
X35420277Y-19355087D01*
X35515692Y-19307379D01*
X35706523Y-19259671D01*
X35945061Y-19259671D01*
X36135891Y-19307379D01*
X36231307Y-19355087D01*
X36279014Y-19402794D01*
X36326722Y-19498210D01*
X36326722Y-19593625D01*
X36279014Y-19689040D01*
X36231307Y-19736748D01*
X36135891Y-19784455D01*
X35945061Y-19832163D01*
X35706523Y-19832163D01*
X35515692Y-19784455D01*
X35420277Y-19736748D01*
X35372570Y-19689040D01*
X35324862Y-19593625D01*
X35754230Y-18687180D02*
X35706523Y-18782595D01*
X35658815Y-18830303D01*
X35563400Y-18878010D01*
X35515692Y-18878010D01*
X35420277Y-18830303D01*
X35372570Y-18782595D01*
X35324862Y-18687180D01*
X35324862Y-18496350D01*
X35372570Y-18400934D01*
X35420277Y-18353227D01*
X35515692Y-18305519D01*
X35563400Y-18305519D01*
X35658815Y-18353227D01*
X35706523Y-18400934D01*
X35754230Y-18496350D01*
X35754230Y-18687180D01*
X35801938Y-18782595D01*
X35849646Y-18830303D01*
X35945061Y-18878010D01*
X36135891Y-18878010D01*
X36231307Y-18830303D01*
X36279014Y-18782595D01*
X36326722Y-18687180D01*
X36326722Y-18496350D01*
X36279014Y-18400934D01*
X36231307Y-18353227D01*
X36135891Y-18305519D01*
X35945061Y-18305519D01*
X35849646Y-18353227D01*
X35801938Y-18400934D01*
X35754230Y-18496350D01*
X35945061Y-17876150D02*
X35945061Y-17112829D01*
X35324862Y-16158676D02*
X35324862Y-16635752D01*
X35801938Y-16683460D01*
X35754230Y-16635752D01*
X35706523Y-16540337D01*
X35706523Y-16301799D01*
X35754230Y-16206384D01*
X35801938Y-16158676D01*
X35897353Y-16110969D01*
X36135891Y-16110969D01*
X36231307Y-16158676D01*
X36279014Y-16206384D01*
X36326722Y-16301799D01*
X36326722Y-16540337D01*
X36279014Y-16635752D01*
X36231307Y-16683460D01*
X35324862Y-15824723D02*
X36326722Y-15490770D01*
X35324862Y-15156816D01*
X36231307Y-14250371D02*
X36279014Y-14298079D01*
X36326722Y-14441202D01*
X36326722Y-14536617D01*
X36279014Y-14679740D01*
X36183599Y-14775155D01*
X36088184Y-14822863D01*
X35897353Y-14870570D01*
X35754230Y-14870570D01*
X35563400Y-14822863D01*
X35467985Y-14775155D01*
X35372570Y-14679740D01*
X35324862Y-14536617D01*
X35324862Y-14441202D01*
X35372570Y-14298079D01*
X35420277Y-14250371D01*
X36326722Y-13296219D02*
X36326722Y-13868710D01*
X36326722Y-13582465D02*
X35324862Y-13582465D01*
X35467985Y-13677880D01*
X35563400Y-13773295D01*
X35611108Y-13868710D01*
X35658815Y-12437482D02*
X36326722Y-12437482D01*
X35277154Y-12676020D02*
X35992769Y-12914558D01*
X35992769Y-12294359D01*
X35324862Y-11435622D02*
X35324862Y-11912698D01*
X35801938Y-11960406D01*
X35754230Y-11912698D01*
X35706523Y-11817283D01*
X35706523Y-11578745D01*
X35754230Y-11483330D01*
X35801938Y-11435622D01*
X35897353Y-11387914D01*
X36135891Y-11387914D01*
X36231307Y-11435622D01*
X36279014Y-11483330D01*
X36326722Y-11578745D01*
X36326722Y-11817283D01*
X36279014Y-11912698D01*
X36231307Y-11960406D01*
X35945061Y-10958546D02*
X35945061Y-10195224D01*
X36326722Y-9241071D02*
X36326722Y-9718148D01*
X35324862Y-9718148D01*
X95586641Y-22108251D02*
X96062832Y-22108251D01*
X95491403Y-22393965D02*
X95824737Y-21393965D01*
X96158070Y-22393965D01*
X95688115Y-15349663D02*
X95830972Y-15397282D01*
X95878591Y-15444901D01*
X95926210Y-15540139D01*
X95926210Y-15682996D01*
X95878591Y-15778234D01*
X95830972Y-15825853D01*
X95735734Y-15873472D01*
X95354782Y-15873472D01*
X95354782Y-14873472D01*
X95688115Y-14873472D01*
X95783353Y-14921092D01*
X95830972Y-14968711D01*
X95878591Y-15063949D01*
X95878591Y-15159187D01*
X95830972Y-15254425D01*
X95783353Y-15302044D01*
X95688115Y-15349663D01*
X95354782Y-15349663D01*
X82703694Y-22256310D02*
X82656075Y-22303929D01*
X82513218Y-22351548D01*
X82417980Y-22351548D01*
X82275123Y-22303929D01*
X82179885Y-22208691D01*
X82132266Y-22113453D01*
X82084647Y-21922977D01*
X82084647Y-21780120D01*
X82132266Y-21589644D01*
X82179885Y-21494406D01*
X82275123Y-21399168D01*
X82417980Y-21351548D01*
X82513218Y-21351548D01*
X82656075Y-21399168D01*
X82703694Y-21446787D01*
X82215872Y-16020069D02*
X82215872Y-15020069D01*
X82453967Y-15020069D01*
X82596824Y-15067689D01*
X82692062Y-15162927D01*
X82739681Y-15258165D01*
X82787300Y-15448641D01*
X82787300Y-15591498D01*
X82739681Y-15781974D01*
X82692062Y-15877212D01*
X82596824Y-15972450D01*
X82453967Y-16020069D01*
X82215872Y-16020069D01*
X67731946Y-21881988D02*
X68065279Y-21881988D01*
X68208136Y-22405797D02*
X67731946Y-22405797D01*
X67731946Y-21405797D01*
X68208136Y-21405797D01*
X67890682Y-15242983D02*
X67557348Y-15242983D01*
X67557348Y-15766792D02*
X67557348Y-14766792D01*
X68033539Y-14766792D01*
X67889915Y-15248089D02*
X67556581Y-15248089D01*
X67556581Y-15771898D02*
X67556581Y-14771898D01*
X68032772Y-14771898D01*
X54342518Y-21269197D02*
X54247280Y-21221577D01*
X54104423Y-21221577D01*
X53961566Y-21269197D01*
X53866328Y-21364435D01*
X53818709Y-21459673D01*
X53771090Y-21650149D01*
X53771090Y-21793006D01*
X53818709Y-21983482D01*
X53866328Y-22078720D01*
X53961566Y-22173958D01*
X54104423Y-22221577D01*
X54199661Y-22221577D01*
X54342518Y-22173958D01*
X54390137Y-22126339D01*
X54390137Y-21793006D01*
X54199661Y-21793006D01*
X53725771Y-15623401D02*
X53725771Y-14623401D01*
X53725771Y-15099592D02*
X54297200Y-15099592D01*
X54297200Y-15623401D02*
X54297200Y-14623401D01*
D13*
X29959192Y-49292380D02*
X29959192Y-50101904D01*
X30006811Y-50197142D01*
X30054430Y-50244761D01*
X30149668Y-50292380D01*
X30340144Y-50292380D01*
X30435382Y-50244761D01*
X30483001Y-50197142D01*
X30530620Y-50101904D01*
X30530620Y-49292380D01*
X31530620Y-50292380D02*
X30959192Y-50292380D01*
X31244906Y-50292380D02*
X31244906Y-49292380D01*
X31149668Y-49435238D01*
X31054430Y-49530476D01*
X30959192Y-49578095D01*
M02*
